<svg width="129" height="129" viewBox="0 0 129 129" fill="none" xmlns="http://www.w3.org/2000/svg">
<path d="M63.6772 33.9568L60.5218 15.203C60.1076 12.7424 62.0043 10.5 64.4996 10.5C66.9949 10.5 68.8917 12.7424 68.4774 15.203L65.322 33.9568C65.1668 34.8845 63.8334 34.8845 63.6772 33.9568ZM65.323 95.0434L68.4784 113.797C68.8927 116.258 66.996 118.5 64.5006 118.5C62.0053 118.5 60.1086 116.258 60.5228 113.797L63.6782 95.0434C63.8334 94.1157 65.1668 94.1157 65.323 95.0434ZM95.0434 63.6772L113.797 60.5218C116.258 60.1076 118.5 62.0043 118.5 64.4996C118.5 66.9949 116.258 68.8917 113.797 68.4774L95.0434 65.322C94.1157 65.1668 94.1157 63.8334 95.0434 63.6772ZM33.9568 65.323L15.203 68.4784C12.7424 68.8927 10.5 66.996 10.5 64.5006C10.5 62.0053 12.7424 60.1086 15.203 60.5228L33.9568 63.6782C34.8845 63.8334 34.8845 65.1668 33.9568 65.323Z" fill="#FFC91D"/>
<path d="M85.5167 42.3213L96.5467 26.8292C97.9939 24.7965 100.921 24.5521 102.685 26.3163C104.449 28.0804 104.205 31.0076 102.172 32.4548L86.6802 43.4849C85.9133 44.0301 84.9709 43.0873 85.5167 42.3213ZM43.4849 86.6792L32.4548 102.171C31.0076 104.204 28.0809 104.448 26.3163 102.684C24.5521 100.92 24.7965 97.9929 26.8292 96.5457L42.3213 85.5157C43.0878 84.9704 44.0306 85.9128 43.4849 86.6792ZM86.6797 85.5162L102.172 96.5462C104.205 97.9934 104.449 100.92 102.685 102.685C100.921 104.449 97.9934 104.205 96.5462 102.172L85.5162 86.6797C84.971 85.9128 85.9133 84.9704 86.6797 85.5162ZM42.3218 43.4843L26.8292 32.4548C24.7965 31.0076 24.5521 28.0809 26.3163 26.3163C28.0804 24.5521 31.0076 24.7965 32.4548 26.8292L43.4849 42.3213C44.0306 43.0873 43.0878 44.0301 42.3218 43.4843Z" fill="#F79219"/>
<path d="M76.978 86.7079C89.2373 79.8282 93.5984 64.3131 86.7188 52.0537C79.8392 39.7944 64.324 35.4333 52.0647 42.3129C39.8053 49.1925 35.4442 64.7077 42.3238 76.967C49.2035 89.2264 64.7186 93.5875 76.978 86.7079Z" fill="#FFA91A"/>
<path d="M44.5515 75.7584C44.1736 75.7584 43.8309 75.5468 43.6545 75.2091C41.9564 71.9186 41.0645 68.2149 41.0645 64.5011C41.0645 51.581 51.581 41.0645 64.5011 41.0645C66.0733 41.0645 67.6505 41.2207 69.1774 41.5331C69.4445 41.5835 69.6712 41.7397 69.8173 41.9614C69.9685 42.1882 70.0189 42.4552 69.9685 42.7223C69.8577 43.2514 69.3185 43.6193 68.7793 43.5084C67.3714 43.2216 65.938 43.0781 64.5011 43.0801C58.7919 43.0801 53.4152 45.3073 49.3587 49.3587C45.3124 53.4102 43.0801 58.7919 43.0801 64.5011C43.0801 67.9428 43.8763 71.2333 45.4434 74.282L45.4484 74.287C45.5703 74.5243 45.5931 74.8002 45.5119 75.0543C45.4307 75.3084 45.252 75.5199 45.0151 75.6425C44.8689 75.7181 44.7127 75.7584 44.5515 75.7584ZM72.8357 44.6825C72.7047 44.6825 72.5787 44.6573 72.4578 44.612C72.2104 44.5117 72.0127 44.3177 71.9079 44.0722C71.8031 43.8268 71.7997 43.5498 71.8985 43.3018C72.1 42.7979 72.7047 42.5359 73.2086 42.7425C73.7277 42.9491 73.9796 43.5336 73.773 44.0526C73.6975 44.2392 73.5679 44.3989 73.4009 44.5112C73.2338 44.6234 73.037 44.6831 72.8357 44.6825Z" fill="#FFC91D"/>
<path d="M79.8025 44.1602C83.1283 48.5678 84.9233 53.9412 84.9146 59.4628C84.9146 73.5208 73.5188 84.9166 59.4608 84.9166C53.9392 84.9253 48.5659 83.1302 44.1582 79.8045C48.8032 85.9698 56.1859 89.9557 64.4999 89.9557C78.5579 89.9557 89.9537 78.5598 89.9537 64.5018C89.9537 56.1879 85.9673 48.8057 79.8025 44.1602Z" fill="#F79219"/>
<path d="M81.1945 45.2852C85.0812 49.7543 87.4339 55.5926 87.4339 61.9801C87.4339 76.038 76.0381 87.4339 61.9801 87.4339C55.5926 87.4339 49.7543 85.0806 45.2852 81.1945C49.9518 86.5606 56.8291 89.9534 64.4996 89.9534C78.5576 89.9534 89.9534 78.5576 89.9534 64.4996C89.9539 56.8296 86.5611 49.9518 81.1945 45.2852Z" fill="#EF7816"/>
<path d="M65.6505 52.2184L67.8606 59.0196C67.9395 59.2626 68.0933 59.4744 68.2999 59.6246C68.5066 59.7748 68.7555 59.8556 69.011 59.8556H75.7301C77.0377 59.8556 77.5814 61.5291 76.5237 62.2975L71.0876 66.2472C70.881 66.3973 70.7272 66.6091 70.6482 66.852C70.5693 67.095 70.5693 67.3567 70.6482 67.5996L72.8583 74.4009C73.2201 75.515 71.9453 76.4417 70.9969 75.7534L65.2937 71.6097C65.063 71.4423 64.7853 71.3521 64.5003 71.3521C64.2153 71.3521 63.9375 71.4423 63.7069 71.6097L58.0037 75.7534C57.0558 76.4422 55.7804 75.5155 56.1422 74.4009L58.3524 67.5996C58.4312 67.3567 58.4312 67.095 58.3522 66.8521C58.2733 66.6091 58.1196 66.3974 57.913 66.2472L52.4768 62.2975C51.4191 61.5291 51.9628 59.8556 53.2705 59.8556H59.9896C60.245 59.8556 60.494 59.7748 60.7006 59.6246C60.9073 59.4744 61.0611 59.2626 61.14 59.0196L63.3501 52.2184C63.7119 51.1043 65.2881 51.1043 65.6505 52.2184Z" fill="white"/>
<path d="M75.0967 38.8478C74.7786 38.7165 74.4895 38.5237 74.2458 38.2806C74.0022 38.0374 73.8089 37.7487 73.6768 37.4308C73.5448 37.1129 73.4768 36.7722 73.4765 36.428C73.4762 36.0838 73.5437 35.7429 73.6752 35.4248L83.8677 10.749C83.9992 10.4309 84.192 10.1418 84.4351 9.89823C84.6783 9.65464 84.967 9.46132 85.2849 9.32932C85.6027 9.19732 85.9435 9.12922 86.2876 9.12891C86.6318 9.12859 86.9727 9.19607 87.2908 9.3275C87.6089 9.45892 87.898 9.65171 88.1416 9.89485C88.3852 10.138 88.5785 10.4267 88.7105 10.7446C88.8425 11.0625 88.9106 11.4032 88.9109 11.7474C88.9112 12.0916 88.8437 12.4324 88.7123 12.7505L78.5198 37.4263C78.3884 37.7445 78.1957 38.0336 77.9525 38.2772C77.7094 38.5209 77.4206 38.7142 77.1028 38.8462C76.7849 38.9782 76.4441 39.0463 76.0999 39.0466C75.7557 39.0469 75.4148 38.9793 75.0967 38.8478ZM41.711 119.674C41.3928 119.543 41.1037 119.35 40.86 119.107C40.6164 118.864 40.423 118.575 40.291 118.257C40.159 117.939 40.0909 117.598 40.0907 117.254C40.0904 116.91 40.1579 116.569 40.2894 116.251L50.4819 91.5751C50.6134 91.257 50.8062 90.9679 51.0493 90.7243C51.2924 90.4807 51.5812 90.2874 51.8991 90.1554C52.2169 90.0234 52.5577 89.9553 52.9018 89.955C53.246 89.9547 53.5869 90.0221 53.905 90.1536C54.2231 90.285 54.5122 90.4778 54.7558 90.7209C54.9994 90.9641 55.1927 91.2528 55.3247 91.5707C55.4567 91.8885 55.5248 92.2293 55.5251 92.5734C55.5254 92.9176 55.4579 93.2585 55.3265 93.5766L45.134 118.252C44.8685 118.895 44.3587 119.405 43.7168 119.672C43.0749 119.938 42.3534 119.939 41.711 119.674ZM90.1535 75.0968C90.2848 74.7787 90.4776 74.4895 90.7207 74.2459C90.9639 74.0023 91.2526 73.8089 91.5705 73.6769C91.8884 73.5449 92.2291 73.4768 92.5733 73.4766C92.9175 73.4763 93.2584 73.5438 93.5765 73.6753L118.252 83.8678C118.57 83.9993 118.859 84.192 119.103 84.4352C119.347 84.6783 119.54 84.9671 119.672 85.2849C119.804 85.6028 119.872 85.9435 119.872 86.2877C119.873 86.6319 119.805 86.9728 119.674 87.2909C119.542 87.609 119.35 87.8981 119.106 88.1417C118.863 88.3852 118.575 88.5786 118.257 88.7106C117.939 88.8426 117.598 88.9107 117.254 88.911C116.91 88.9113 116.569 88.8438 116.251 88.7124L91.575 78.5199C91.2568 78.3885 90.9677 78.1958 90.7241 77.9526C90.4804 77.7095 90.2871 77.4207 90.1551 77.1029C90.0231 76.785 89.955 76.4442 89.9547 76.1C89.9544 75.7558 90.022 75.4149 90.1535 75.0968ZM9.32741 41.711C9.45878 41.3929 9.65153 41.1037 9.89467 40.8601C10.1378 40.6165 10.4266 40.4231 10.7444 40.2911C11.0623 40.1591 11.4031 40.091 11.7473 40.0908C12.0915 40.0905 12.4324 40.158 12.7504 40.2895L37.4262 50.482C37.7443 50.6134 38.0334 50.8062 38.277 51.0494C38.5206 51.2925 38.7139 51.5813 38.8459 51.8991C38.9779 52.217 39.046 52.5577 39.0463 52.9019C39.0467 53.2461 38.9792 53.587 38.8478 53.9051C38.7163 54.2232 38.5235 54.5123 38.2804 54.7558C38.0372 54.9994 37.7485 55.1928 37.4306 55.3248C37.1128 55.4568 36.772 55.5249 36.4279 55.5252C36.0837 55.5255 35.7428 55.458 35.4247 55.3266L10.7494 45.1336C10.4313 45.0022 10.1422 44.8095 9.89852 44.5665C9.65488 44.3234 9.46151 44.0347 9.32946 43.7169C9.19741 43.399 9.12926 43.0583 9.12891 42.7141C9.12856 42.37 9.19601 42.0291 9.32741 41.711ZM90.1323 53.8542C90.0002 53.5363 89.9321 53.1956 89.9317 52.8514C89.9313 52.5073 89.9988 52.1664 90.1302 51.8483C90.2616 51.5302 90.4544 51.2411 90.6975 50.9975C90.9407 50.7539 91.2294 50.5606 91.5473 50.4286L116.203 40.1877C116.521 40.0557 116.861 39.9876 117.206 39.9872C117.55 39.9869 117.891 40.0544 118.209 40.1858C118.527 40.3171 118.816 40.5099 119.06 40.753C119.303 40.9961 119.496 41.2849 119.628 41.6027C119.76 41.9205 119.829 42.2612 119.829 42.6054C119.829 42.9496 119.762 43.2904 119.63 43.6085C119.499 43.9266 119.306 44.2157 119.063 44.4593C118.82 44.7029 118.531 44.8962 118.213 45.0282L93.5579 55.2691C92.916 55.5357 92.1945 55.5364 91.552 55.2711C90.9096 55.0057 90.3989 54.496 90.1323 53.8542ZM9.37277 87.3992C9.24069 87.0814 9.17252 86.7406 9.17216 86.3965C9.17179 86.0523 9.23923 85.7114 9.37063 85.3933C9.50203 85.0752 9.69481 84.7861 9.93796 84.5425C10.1811 84.2989 10.4699 84.1056 10.7877 83.9736L35.4434 73.7328C35.7612 73.6007 36.1019 73.5326 36.4461 73.5323C36.7902 73.5319 37.1311 73.5994 37.4492 73.7308C37.7673 73.8622 38.0564 74.0549 38.3 74.2981C38.5436 74.5412 38.7369 74.8299 38.8689 75.1477C39.0009 75.4656 39.0691 75.8063 39.0694 76.1504C39.0697 76.4946 39.0023 76.8355 38.8709 77.1536C38.7395 77.4716 38.5467 77.7607 38.3036 78.0043C38.0605 78.2479 37.7718 78.4413 37.4539 78.5733L12.7983 88.8142C12.1564 89.0808 11.4349 89.0815 10.7925 88.8161C10.1501 88.5508 9.6394 88.0411 9.37277 87.3992ZM75.1471 90.1324C75.465 90.0003 75.8057 89.9322 76.1499 89.9318C76.494 89.9314 76.8349 89.9989 77.153 90.1302C77.4711 90.2617 77.7603 90.4544 78.0038 90.6976C78.2474 90.9407 78.4407 91.2295 78.5727 91.5474L88.8136 116.203C88.9456 116.521 89.0137 116.862 89.0141 117.206C89.0144 117.55 88.9469 117.891 88.8156 118.209C88.6842 118.527 88.4914 118.816 88.2483 119.06C88.0052 119.303 87.7164 119.497 87.3986 119.629C87.0808 119.761 86.7401 119.829 86.3959 119.829C86.0517 119.829 85.7109 119.762 85.3928 119.631C85.0747 119.499 84.7856 119.306 84.542 119.063C84.2984 118.82 84.1051 118.531 83.9731 118.214L73.7322 93.5579C73.4656 92.9161 73.4649 92.1945 73.7302 91.5521C73.9956 90.9097 74.5053 90.399 75.1471 90.1324ZM41.6021 9.37285C41.9199 9.24077 42.2607 9.17261 42.6048 9.17224C42.949 9.17187 43.2899 9.23931 43.608 9.37071C43.9261 9.50211 44.2152 9.69489 44.4588 9.93804C44.7024 10.1812 44.8957 10.4699 45.0277 10.7878L55.2685 35.4434C55.4006 35.7613 55.4687 36.102 55.469 36.4462C55.4694 36.7903 55.4019 37.1312 55.2705 37.4493C55.1391 37.7674 54.9464 38.0565 54.7033 38.3001C54.4601 38.5437 54.1714 38.737 53.8536 38.869C53.5357 39.001 53.195 39.0691 52.8509 39.0695C52.5067 39.0698 52.1658 39.0024 51.8478 38.871C51.5297 38.7396 51.2406 38.5468 50.997 38.3037C50.7534 38.0606 50.56 37.7719 50.428 37.454L40.1871 12.7984C39.9205 12.1565 39.9198 11.435 40.1852 10.7926C40.4506 10.1502 40.9602 9.63948 41.6021 9.37285Z" fill="#FFBF1A" fill-opacity="0.21"/>
</svg>
