<svg width="24" height="24" viewBox="0 0 24 24" fill="none" xmlns="http://www.w3.org/2000/svg">
<circle cx="12" cy="12" r="11.75" stroke="#D0D0DD" stroke-width="0.5"/>
<path fill-rule="evenodd" clip-rule="evenodd" d="M12.375 9C12.375 8.79289 12.2071 8.625 12 8.625C11.7929 8.625 11.625 8.79289 11.625 9V11.625H9C8.79289 11.625 8.625 11.7929 8.625 12C8.625 12.2071 8.79289 12.375 9 12.375H11.625V15C11.625 15.2071 11.7929 15.375 12 15.375C12.2071 15.375 12.375 15.2071 12.375 15V12.375H15C15.2071 12.375 15.375 12.2071 15.375 12C15.375 11.7929 15.2071 11.625 15 11.625H12.375V9Z" fill="#D0D0DD"/>
</svg>
