<svg width="21" height="21" viewBox="0 0 21 21" fill="none" xmlns="http://www.w3.org/2000/svg">
    <path fill-rule="evenodd" clip-rule="evenodd"
        d="M7.39992 3.75C7.39992 2.50736 8.36699 1.5 9.55992 1.5H11.4799C12.6729 1.5 13.6399 2.50736 13.6399 3.75V4.75H7.39992V3.75ZM5.95992 4.75V3.75C5.95992 1.67893 7.5717 0 9.55992 0H11.4799C13.4681 0 15.0799 1.67893 15.0799 3.75V4.75H16.2799C18.4007 4.75 20.1199 6.54086 20.1199 8.75V9.92289C19.4538 10.2571 18.6179 10.6572 17.6914 11.057C15.9665 11.8012 13.9891 12.5166 12.2261 12.8318C11.9067 12.1892 11.2625 11.75 10.5199 11.75C9.7773 11.75 9.13315 12.1892 8.81378 12.8318C7.05071 12.5166 5.07332 11.8012 3.34837 11.057C2.42193 10.6572 1.58601 10.2572 0.919922 9.92291V8.75C0.919922 6.54086 2.63915 4.75 4.75992 4.75H5.95992ZM18.2425 12.4428C18.9268 12.1475 19.5625 11.8525 20.1199 11.5824V16.75C20.1199 18.9591 18.4007 20.75 16.2799 20.75H4.75992C2.63915 20.75 0.919922 18.9591 0.919922 16.75V11.5824C1.47738 11.8525 2.11301 12.1475 2.79731 12.4428C4.55656 13.2019 6.70064 13.9907 8.68164 14.3291C8.92002 15.1513 9.65285 15.75 10.5199 15.75C11.387 15.75 12.1198 15.1513 12.3582 14.3291C14.3392 13.9907 16.4833 13.2019 18.2425 12.4428Z"
        fill="white" />
</svg>
