<svg width="18" height="18" viewBox="0 0 18 18" fill="none" xmlns="http://www.w3.org/2000/svg">
<g filter="url(#filter0_d_7_2888)">
<path d="M9 0C6.245 0 4 2.245 4 5C4 7.755 6.245 10 9 10C11.755 10 14 7.755 14 5C14 2.245 11.755 0 9 0ZM11.175 6.785C11.105 6.905 10.98 6.97 10.85 6.97C10.785 6.97 10.72 6.955 10.66 6.915L9.11 5.99C8.725 5.76 8.44 5.255 8.44 4.81V2.76C8.44 2.555 8.61 2.385 8.815 2.385C9.02 2.385 9.19 2.555 9.19 2.76V4.81C9.19 4.99 9.34 5.255 9.495 5.345L11.045 6.27C11.225 6.375 11.285 6.605 11.175 6.785Z" fill="white"/>
</g>
<defs>
<filter id="filter0_d_7_2888" x="0" y="0" width="18" height="18" filterUnits="userSpaceOnUse" color-interpolation-filters="sRGB">
<feFlood flood-opacity="0" result="BackgroundImageFix"/>
<feColorMatrix in="SourceAlpha" type="matrix" values="0 0 0 0 0 0 0 0 0 0 0 0 0 0 0 0 0 0 127 0" result="hardAlpha"/>
<feOffset dy="4"/>
<feGaussianBlur stdDeviation="2"/>
<feComposite in2="hardAlpha" operator="out"/>
<feColorMatrix type="matrix" values="0 0 0 0 0 0 0 0 0 0 0 0 0 0 0 0 0 0 0.25 0"/>
<feBlend mode="normal" in2="BackgroundImageFix" result="effect1_dropShadow_7_2888"/>
<feBlend mode="normal" in="SourceGraphic" in2="effect1_dropShadow_7_2888" result="shape"/>
</filter>
</defs>
</svg>
