<svg width="14" height="14" viewBox="0 0 14 14" fill="none" xmlns="http://www.w3.org/2000/svg">
    <path
        d="M4.52018 1.4585C4.52018 1.21687 4.32431 1.021 4.08268 1.021C3.84106 1.021 3.64518 1.21687 3.64518 1.4585V2.37973C2.80557 2.44696 2.25438 2.61196 1.84943 3.01691C1.44448 3.42186 1.27948 3.97305 1.21225 4.81266H12.7864C12.7192 3.97305 12.5542 3.42186 12.1493 3.01691C11.7443 2.61196 11.1931 2.44696 10.3535 2.37973V1.4585C10.3535 1.21687 10.1576 1.021 9.91602 1.021C9.67439 1.021 9.47852 1.21687 9.47852 1.4585V2.34102C9.09044 2.3335 8.65545 2.3335 8.16602 2.3335H5.83268C5.34325 2.3335 4.90825 2.3335 4.52018 2.34102V1.4585Z"
        fill="#B79654" />
    <path fill-rule="evenodd" clip-rule="evenodd"
        d="M1.16602 7.00016C1.16602 6.51073 1.16602 6.07573 1.17354 5.68766H12.8252C12.8327 6.07573 12.8327 6.51073 12.8327 7.00016V8.16683C12.8327 10.3667 12.8327 11.4667 12.1493 12.1501C11.4658 12.8335 10.3659 12.8335 8.16602 12.8335H5.83268C3.63279 12.8335 2.53285 12.8335 1.84943 12.1501C1.16602 11.4667 1.16602 10.3667 1.16602 8.16683V7.00016ZM9.91602 8.16683C10.2382 8.16683 10.4993 7.90566 10.4993 7.5835C10.4993 7.26133 10.2382 7.00016 9.91602 7.00016C9.59385 7.00016 9.33268 7.26133 9.33268 7.5835C9.33268 7.90566 9.59385 8.16683 9.91602 8.16683ZM9.91602 10.5002C10.2382 10.5002 10.4993 10.239 10.4993 9.91683C10.4993 9.59466 10.2382 9.3335 9.91602 9.3335C9.59385 9.3335 9.33268 9.59466 9.33268 9.91683C9.33268 10.239 9.59385 10.5002 9.91602 10.5002ZM7.58268 7.5835C7.58268 7.90566 7.32152 8.16683 6.99935 8.16683C6.67718 8.16683 6.41602 7.90566 6.41602 7.5835C6.41602 7.26133 6.67718 7.00016 6.99935 7.00016C7.32152 7.00016 7.58268 7.26133 7.58268 7.5835ZM7.58268 9.91683C7.58268 10.239 7.32152 10.5002 6.99935 10.5002C6.67718 10.5002 6.41602 10.239 6.41602 9.91683C6.41602 9.59466 6.67718 9.3335 6.99935 9.3335C7.32152 9.3335 7.58268 9.59466 7.58268 9.91683ZM4.08268 8.16683C4.40485 8.16683 4.66602 7.90566 4.66602 7.5835C4.66602 7.26133 4.40485 7.00016 4.08268 7.00016C3.76052 7.00016 3.49935 7.26133 3.49935 7.5835C3.49935 7.90566 3.76052 8.16683 4.08268 8.16683ZM4.08268 10.5002C4.40485 10.5002 4.66602 10.239 4.66602 9.91683C4.66602 9.59466 4.40485 9.3335 4.08268 9.3335C3.76052 9.3335 3.49935 9.59466 3.49935 9.91683C3.49935 10.239 3.76052 10.5002 4.08268 10.5002Z"
        fill="#B79654" />
</svg>
