<svg width="14" height="14" viewBox="0 0 14 14" fill="none" xmlns="http://www.w3.org/2000/svg">
<path d="M12.25 12.833H1.75C1.51083 12.833 1.3125 12.6347 1.3125 12.3955C1.3125 12.1563 1.51083 11.958 1.75 11.958H12.25C12.4892 11.958 12.6875 12.1563 12.6875 12.3955C12.6875 12.6347 12.4892 12.833 12.25 12.833Z" fill="#B79654"/>
<path d="M11.0958 2.02964C9.96415 0.897977 8.85582 0.868811 7.69498 2.02964L6.98915 2.73548C6.93082 2.79381 6.90748 2.88714 6.93082 2.96881C7.37415 4.51464 8.61082 5.75131 10.1566 6.19464C10.18 6.20048 10.2033 6.20631 10.2267 6.20631C10.2908 6.20631 10.3491 6.18298 10.3958 6.13631L11.0958 5.43048C11.6733 4.85881 11.9533 4.30464 11.9533 3.74464C11.9591 3.16714 11.6792 2.60714 11.0958 2.02964Z" fill="#B79654"/>
<path d="M9.10683 6.72596C8.93767 6.6443 8.77433 6.56263 8.61683 6.4693C8.4885 6.39346 8.366 6.3118 8.2435 6.2243C8.14433 6.16013 8.02767 6.0668 7.91683 5.97346C7.90517 5.96763 7.86433 5.93263 7.81767 5.88596C7.62517 5.72263 7.40933 5.51263 7.21683 5.2793C7.19933 5.26763 7.17017 5.2268 7.12933 5.1743C7.071 5.1043 6.97183 4.98763 6.88433 4.85346C6.81433 4.76596 6.73267 4.63763 6.65683 4.5093C6.5635 4.3518 6.48183 4.1943 6.40017 4.03096C6.29309 3.80152 5.99194 3.73335 5.8129 3.9124L2.53267 7.19263C2.45683 7.26846 2.38683 7.4143 2.36933 7.51346L2.05433 9.74763C1.996 10.1443 2.10683 10.5176 2.35183 10.7685C2.56183 10.9726 2.8535 11.0835 3.1685 11.0835C3.2385 11.0835 3.3085 11.0776 3.3785 11.066L5.6185 10.751C5.7235 10.7335 5.86933 10.6635 5.93933 10.5876L9.22498 7.30198C9.40044 7.12652 9.33452 6.82463 9.10683 6.72596Z" fill="#B79654"/>
</svg>
