<svg width="21" height="21" viewBox="0 0 21 21" fill="none" xmlns="http://www.w3.org/2000/svg">
    <path fill-rule="evenodd" clip-rule="evenodd"
        d="M7.25 3.75C7.25 2.50736 8.25736 1.5 9.5 1.5H11.5C12.7426 1.5 13.75 2.50736 13.75 3.75V4.75H7.25V3.75ZM5.75 4.75V3.75C5.75 1.67893 7.42893 0 9.5 0H11.5C13.5711 0 15.25 1.67893 15.25 3.75V4.75H16.5C18.7091 4.75 20.5 6.54086 20.5 8.75V9.92289C19.8061 10.2571 18.9354 10.6572 17.9703 11.057C16.1735 11.8012 14.1138 12.5166 12.2772 12.8318C11.9445 12.1892 11.2736 11.75 10.5 11.75C9.72644 11.75 9.05545 12.1892 8.72277 12.8318C6.88623 12.5166 4.82646 11.8012 3.02963 11.057C2.06459 10.6572 1.19385 10.2572 0.5 9.92291V8.75C0.5 6.54086 2.29086 4.75 4.5 4.75H5.75ZM18.5444 12.4428C19.2572 12.1475 19.9193 11.8525 20.5 11.5824V16.75C20.5 18.9591 18.7091 20.75 16.5 20.75H4.5C2.29086 20.75 0.5 18.9591 0.5 16.75V11.5824C1.08068 11.8525 1.7428 12.1475 2.45561 12.4428C4.28817 13.2019 6.52159 13.9907 8.58512 14.3291C8.83343 15.1513 9.5968 15.75 10.5 15.75C11.4032 15.75 12.1666 15.1513 12.4149 14.3291C14.4784 13.9907 16.7118 13.2019 18.5444 12.4428Z"
        fill="white" />
</svg>
