<svg width="60" height="60" viewBox="0 0 60 60" fill="none" xmlns="http://www.w3.org/2000/svg">
    <path
        d="M48.0734 47.1997C47.9618 46.3627 47.647 45.5658 47.1565 44.8786C46.666 44.1913 46.0147 43.6346 45.2594 43.257L43.0312 42.1429C42.6992 41.9769 42.3187 42.1241 42.1563 42.439L41.0335 42.0259C48.7749 39.9169 52.8835 36.2069 52.8835 36.2069C48.8102 28.2543 49.9093 16.1638 46.6766 9.31034C43.4438 2.4569 37.3662 0 30.1248 0C22.8835 0 16.8059 2.4569 13.5731 9.31034C10.3403 16.1638 11.4395 28.2543 7.36621 36.2069C7.36621 36.2069 11.4749 39.9168 19.2163 42.0257L18.0937 42.4389C17.9331 42.1236 17.5532 41.9754 17.2219 42.1411L15.1899 43.1571C13.4558 44.0241 12.403 45.5003 12.1764 47.1996L12.1263 47.5756V47.5757L10.9382 56.4862C10.6901 58.3469 12.1375 60 14.0144 60H46.2354C48.1123 60 49.5597 58.3469 49.3115 56.4864L48.0734 47.1997Z"
        fill="#FFD7A3" />
    <path
        d="M46.6766 9.31034C43.4438 2.4569 37.3662 0 30.1248 0C22.8835 0 16.8059 2.4569 13.5731 9.31034C10.3403 16.1638 11.4395 28.2543 7.36621 36.2069C7.36621 36.2069 15.3835 43.4483 30.1248 43.4483C44.8662 43.4483 52.8835 36.2069 52.8835 36.2069C48.8102 28.2543 49.9093 16.1638 46.6766 9.31034Z"
        fill="#9D6E48" />
    <path
        d="M23.9179 18.4914C23.9179 11.25 26.6217 4.48797 32.0822 0.0711207C31.4391 0.028319 30.7888 0 30.1248 0C22.8835 0 16.8059 2.4569 13.5731 9.31034C10.3403 16.1638 11.4395 28.2543 7.36621 36.2069C7.36621 36.2069 13.2409 41.3657 23.9179 42.9652V18.4914Z"
        fill="#8D5F3D" />
    <path
        d="M48.1241 47.5749C47.9997 46.6414 47.6227 45.7597 47.0339 45.0247C46.4452 44.2897 45.6669 43.7294 44.7831 43.4043L37.7471 40.8155C37.3351 40.6781 36.9769 40.4147 36.723 40.0624C36.4691 39.7101 36.3324 39.2869 36.3324 38.8527V32.0679H23.9186V38.8525C23.9187 39.2868 23.782 39.71 23.5281 40.0623C23.2742 40.4145 22.9159 40.678 22.504 40.8153L15.468 43.4041C14.5842 43.7293 13.8059 44.2896 13.2171 45.0246C12.6284 45.7595 12.2514 46.6413 12.127 47.5748L10.9389 56.4853C10.6908 58.3458 12.1382 59.9989 14.015 59.9989H46.2361C48.113 59.9989 49.5604 58.3458 49.3122 56.4853L48.1241 47.5749Z"
        fill="#FFD7A3" />
    <path
        d="M23.9183 38.8548C23.9183 38.9054 23.9161 38.9553 23.9124 39.005C23.9105 39.0308 23.9072 39.0562 23.9043 39.0819C23.902 39.1026 23.8999 39.1233 23.897 39.1437C23.8913 39.1832 23.8845 39.2225 23.8765 39.2615L23.876 39.264C23.8192 39.5453 23.7046 39.8117 23.5393 40.0463C23.374 40.2809 23.1618 40.4785 22.916 40.6267C31.57 42.1216 36.3321 35.5184 36.3321 35.5184L23.9183 35.4321V38.8548Z"
        fill="#FDC88E" />
    <path
        d="M44.6071 20.6886V18.6197C44.6071 15.7631 42.2912 13.4473 39.4346 13.4473H20.8139C17.9574 13.4473 15.6415 15.7631 15.6415 18.6197V20.6886C13.9275 20.6886 12.5381 22.0782 12.5381 23.7921C12.5381 25.5061 13.9275 26.8955 15.6415 26.8955V27.93C15.6416 29.1554 16.0043 30.3534 16.684 31.373C17.3637 32.3926 18.33 33.1882 19.4611 33.6595L26.1453 36.4446C27.406 36.9699 28.7583 37.2403 30.1241 37.2403C31.4899 37.2403 32.8422 36.9699 34.1029 36.4446L40.7875 33.6594C41.9186 33.1881 42.8849 32.3926 43.5647 31.373C44.2444 30.3534 44.6071 29.1554 44.6071 27.93V26.8955C46.3211 26.8955 47.7105 25.5061 47.7105 23.7921C47.7105 22.0781 46.3211 20.6886 44.6071 20.6886Z"
        fill="#FFE1B2" />
    <path
        d="M39.176 16.5025V13.8354H18.8499C16.9676 14.6089 15.6415 16.4589 15.6415 18.6199V20.6889C13.9275 20.6889 12.5381 22.0783 12.5381 23.7923C12.5381 25.5064 13.9275 26.8958 15.6415 26.8958V27.9303C15.6415 29.1557 16.0042 30.3537 16.6839 31.3733C17.3637 32.3929 18.33 33.1884 19.4611 33.6598L26.1452 36.4448C26.4719 36.5803 26.8054 36.699 27.1443 36.8003C24.1904 34.6394 22.2241 32.7503 21.0719 31.5151C20.2337 30.6164 19.7795 29.4305 19.7795 28.2016V20.6744C23.1164 20.5923 33.7041 20.051 39.176 16.5025Z"
        fill="#FFD7A3" />
    <path
        d="M22.8831 24.8271C22.3142 24.8271 21.8486 24.3616 21.8486 23.7926V22.7581C21.8486 22.1892 22.3142 21.7236 22.8831 21.7236C23.4521 21.7236 23.9176 22.1892 23.9176 22.7581V23.7926C23.9176 24.3616 23.4521 24.8271 22.8831 24.8271ZM37.3659 24.8271C36.7969 24.8271 36.3314 24.3616 36.3314 23.7926V22.7581C36.3314 22.1892 36.7969 21.7236 37.3659 21.7236C37.9348 21.7236 38.4004 22.1892 38.4004 22.7581V23.7926C38.4004 24.3616 37.9348 24.8271 37.3659 24.8271Z"
        fill="#623F33" />
    <path
        d="M30.1237 32.0967C28.2846 32.0967 26.5642 31.6441 25.4039 30.8547C24.9317 30.5334 24.8088 29.8899 25.1307 29.4176C25.4514 28.9459 26.0955 28.8231 26.5677 29.1444C27.3809 29.6975 28.7104 30.0278 30.1237 30.0278C31.5371 30.0278 32.8665 29.6975 33.6798 29.1444C33.792 29.0679 33.9183 29.0142 34.0513 28.9865C34.1843 28.9588 34.3215 28.9577 34.4549 28.983C34.5884 29.0084 34.7156 29.0599 34.8291 29.1344C34.9427 29.209 35.0405 29.3052 35.1168 29.4176C35.1933 29.5299 35.2468 29.6562 35.2745 29.7892C35.3021 29.9222 35.3033 30.0593 35.2779 30.1927C35.2525 30.3262 35.2011 30.4533 35.1266 30.5669C35.0521 30.6805 34.9559 30.7783 34.8436 30.8547C33.6834 31.6441 31.9629 32.0967 30.1237 32.0967Z"
        fill="#E4B07B" />
    <path
        d="M17.7106 18.6216C17.7106 18.6216 24.3054 19.2682 28.0554 17.5871C28.5831 17.3506 30.1244 13.9664 30.1244 13.9664V18.6216C30.1244 18.6216 34.8812 18.3755 39.8227 16.3812V12.6733H17.0059C17.4756 15.0393 17.7106 18.6216 17.7106 18.6216Z"
        fill="#9D6E48" />
    <path
        d="M45.26 43.2573L43.0317 42.1432C42.6542 41.9544 42.2136 42.1706 42.1028 42.5779C40.6687 47.8487 35.8504 51.7248 30.1253 51.7248C24.3988 51.7248 19.5794 47.8468 18.1466 42.5739C18.0364 42.1687 17.5981 41.9536 17.2226 42.1414L15.1906 43.1574C13.4565 44.0244 12.4037 45.5006 12.1771 47.1999L10.9389 56.4865C10.6908 58.3471 12.1382 60.0002 14.015 60.0002H46.2361C48.113 60.0002 49.5604 58.3471 49.3122 56.4865L48.0739 47.1999C47.9623 46.3629 47.6475 45.5661 47.157 44.8788C46.6665 44.1916 46.0152 43.6349 45.26 43.2573Z"
        fill="#FF6473" />
    <path
        d="M12.6475 45.6616C12.4131 46.1445 12.2483 46.6583 12.1762 47.1987L10.9379 56.4854C10.6899 58.3459 12.1372 59.999 14.0142 59.999H18.7454V55.8611C18.7454 54.5181 18.3098 53.2114 17.504 52.137L12.6475 45.6616ZM47.6019 45.6616C47.8363 46.1445 48.0011 46.6583 48.0732 47.1987L49.3115 56.4854C49.5595 58.3459 48.1122 59.999 46.2352 59.999H41.504V55.8611C41.504 54.5181 41.9396 53.2113 42.7454 52.137L47.6019 45.6616Z"
        fill="#F05467" />
    <path
        d="M43.0562 13.4029C43.0562 14.7956 40.2463 15.9245 38.8536 15.9245C37.4609 15.9245 36.332 14.7956 36.332 13.4029C36.332 12.0102 37.4609 10.8813 38.8536 10.8813C40.2463 10.8813 43.0562 12.0104 43.0562 13.4029ZM43.0562 13.4029C43.0562 12.0102 45.8661 10.8813 47.2588 10.8813C48.6514 10.8813 49.7803 12.0102 49.7803 13.4029C49.7803 14.7956 48.6514 15.9245 47.2588 15.9245C45.8661 15.9245 43.0562 14.7956 43.0562 13.4029Z"
        fill="#BD445A" />
    <path
        d="M43.0569 13.403C44.2629 14.0994 43.8356 17.0973 43.1394 18.3034C42.443 19.5095 40.9009 19.9226 39.6948 19.2264C38.4887 18.5302 38.0756 16.9879 38.7718 15.7818C39.4683 14.5758 41.8509 12.7067 43.0569 13.403Z"
        fill="#FF6473" />
    <path
        d="M43.0553 13.4028C41.8492 12.7064 42.2766 9.7085 42.9729 8.50242C43.6692 7.29634 45.2114 6.8832 46.4175 7.5794C47.6235 8.27561 48.0367 9.81789 47.3405 11.024C46.644 12.23 44.2613 14.0991 43.0553 13.4028Z"
        fill="#FF6473" />
    <path
        d="M43.0553 13.403C41.8492 14.0994 42.2766 17.0973 42.9729 18.3034C43.6692 19.5095 45.2114 19.9226 46.4175 19.2264C47.6235 18.5302 48.0367 16.9879 47.3405 15.7818C46.644 14.5758 44.2613 12.7067 43.0553 13.403Z"
        fill="#F05467" />
    <path
        d="M43.0569 13.4028C44.2629 12.7064 43.8356 9.7085 43.1394 8.50242C42.443 7.29634 40.9009 6.8832 39.6948 7.5794C38.4887 8.27561 38.0756 9.81789 38.7718 11.024C39.4683 12.23 41.8509 14.0991 43.0569 13.4028Z"
        fill="#F05467" />
    <path
        d="M43.056 15.0833C43.9844 15.0833 44.7371 14.3306 44.7371 13.4022C44.7371 12.4738 43.9844 11.7212 43.056 11.7212C42.1276 11.7212 41.375 12.4738 41.375 13.4022C41.375 14.3306 42.1276 15.0833 43.056 15.0833Z"
        fill="white" />
    <path
        d="M17.0059 12.6733C17.4759 15.0393 17.7112 18.6216 17.7112 18.6216C17.7112 18.6216 20.6946 18.9124 23.7888 18.5925V18.4923C23.7888 16.5027 24.0087 14.5514 24.4329 12.6733H17.0059Z"
        fill="#8D5F3D" />
</svg>
