<svg width="32" height="32" viewBox="0 0 32 32" fill="none" xmlns="http://www.w3.org/2000/svg">
<circle cx="16" cy="16" r="16" fill="#232226"/>
<path fill-rule="evenodd" clip-rule="evenodd" d="M14.987 15.013C16.4597 15.013 17.6536 13.8191 17.6536 12.3464C17.6536 10.8736 16.4597 9.67969 14.987 9.67969C13.5142 9.67969 12.3203 10.8736 12.3203 12.3464C12.3203 13.8191 13.5142 15.013 14.987 15.013ZM14.987 21.6797C17.5643 21.6797 19.6536 20.4858 19.6536 19.013C19.6536 17.5403 17.5643 16.3464 14.987 16.3464C12.4097 16.3464 10.3203 17.5403 10.3203 19.013C10.3203 20.4858 12.4097 21.6797 14.987 21.6797ZM17.6279 14.89C18.2631 14.2307 18.6536 13.3342 18.6536 12.3464C18.6536 11.8767 18.5653 11.4276 18.4044 11.0148C19.4699 11.0589 20.3203 11.9367 20.3203 13.0131C20.3203 14.1176 19.4248 15.0131 18.3203 15.0131C18.0769 15.0131 17.8437 14.9696 17.6279 14.89ZM20.6536 19.013C20.6536 19.3722 20.5738 19.7193 20.425 20.0474C21.5626 19.6947 22.3203 19.0648 22.3203 18.3463C22.3203 17.3422 20.8403 16.5109 18.9115 16.368C19.9852 17.0352 20.6536 17.9736 20.6536 19.013Z" fill="#F7F7F8"/>
</svg>
