<svg width="16" height="16" viewBox="0 0 16 16" fill="none" xmlns="http://www.w3.org/2000/svg">
    <path
        d="M3.99863 10.9511C4.3016 11.1604 4.37759 11.5756 4.16836 11.8785C3.78008 12.4408 3.53892 12.8253 3.41588 13.1162C3.301 13.3878 3.33714 13.4643 3.34626 13.4835L3.3468 13.4847C3.35856 13.5099 3.3725 13.5347 3.38858 13.5585C3.41242 13.5939 3.50192 13.7024 3.99976 13.7676C4.48888 13.8317 5.17857 13.8331 6.18834 13.8331H9.812C10.8218 13.8331 11.5115 13.8317 12.0006 13.7676C12.4985 13.7024 12.5879 13.5939 12.6118 13.5585L12.6536 13.4847L12.6541 13.4835C12.6632 13.4643 12.6993 13.3878 12.5845 13.1162C12.4615 12.8253 12.2203 12.4408 11.832 11.8785C11.6228 11.5756 11.6988 11.1604 12.0017 10.9511C12.3047 10.7419 12.7199 10.8179 12.9291 11.1209C13.3105 11.6732 13.6289 12.1627 13.8125 12.5968C14.0019 13.0445 14.0958 13.5466 13.8621 14.048C13.8207 14.1367 13.7724 14.2221 13.7177 14.3033C13.3586 14.8367 12.7616 15.0127 12.1738 15.0897C11.5875 15.1665 10.8094 15.1664 9.862 15.1664H6.13838C5.19096 15.1664 4.41286 15.1665 3.82658 15.0897C3.23876 15.0127 2.64178 14.8367 2.2826 14.3033C2.22794 14.2221 2.17966 14.1367 2.1383 14.048C1.90458 13.5466 1.99852 13.0445 2.18787 12.5968C2.37148 12.1627 2.68983 11.6732 3.07122 11.1209C3.28045 10.8179 3.69566 10.7419 3.99863 10.9511Z"
        fill="white" />
    <path fill-rule="evenodd" clip-rule="evenodd"
        d="M7.99903 0.833008C5.96513 0.833008 4.03342 2.06963 3.22642 4.01017C2.47512 5.81675 2.88356 7.35634 3.72719 8.66787C4.41572 9.73827 5.42033 10.6937 6.31662 11.5462C6.48694 11.7082 6.65336 11.8665 6.81296 12.0211L6.81403 12.0222C7.13223 12.3287 7.55716 12.4997 7.99903 12.4997C8.4409 12.4997 8.8659 12.3287 9.1841 12.0221C9.33483 11.8769 9.4915 11.7285 9.6517 11.5767L9.65243 11.576C10.5583 10.7176 11.5767 9.75247 12.2724 8.66847C13.115 7.35567 13.522 5.81453 12.7717 4.01017C11.9647 2.06963 10.033 0.833008 7.99903 0.833008ZM7.9987 3.99967C6.8941 3.99967 5.9987 4.89511 5.9987 5.99967C5.9987 7.10427 6.8941 7.99967 7.9987 7.99967C9.1033 7.99967 9.9987 7.10427 9.9987 5.99967C9.9987 4.89511 9.1033 3.99967 7.9987 3.99967Z"
        fill="white" />
</svg>
