<svg width="89" height="22" viewBox="0 0 89 22" fill="none" xmlns="http://www.w3.org/2000/svg">
<path d="M68.5 6H88.5L82.5 14L88.5 22H68.5V6Z" fill="#217D83"/>
<path d="M20.5 6H0.5L6.5 14L0.5 22H20.5V6Z" fill="#217D83"/>
<rect x="12.5" width="64" height="16" fill="#54B1B7"/>
<path d="M31.9549 7.56016V5.36516C31.9549 4.95516 31.6449 4.49016 31.2599 4.33516L28.4749 3.19516C27.8499 2.94016 27.1449 2.94016 26.5199 3.19516L23.7349 4.33516C23.3549 4.49016 23.0449 4.95516 23.0449 5.36516V7.56016C23.0449 10.0052 24.8199 12.2952 27.2449 12.9652C27.4099 13.0102 27.5899 13.0102 27.7549 12.9652C30.1799 12.2952 31.9549 10.0052 31.9549 7.56016ZM27.8749 8.43516V9.75016C27.8749 9.95516 27.7049 10.1252 27.4999 10.1252C27.2949 10.1252 27.1249 9.95516 27.1249 9.75016V8.43516C26.6199 8.27516 26.2499 7.80516 26.2499 7.25016C26.2499 6.56016 26.8099 6.00016 27.4999 6.00016C28.1899 6.00016 28.7499 6.56016 28.7499 7.25016C28.7499 7.81016 28.3799 8.27516 27.8749 8.43516Z" fill="url(#paint0_linear_2220_4749)"/>
<path d="M36.4585 12.5V3.77273H38.0394V11.1747H41.8832V12.5H36.4585ZM43.5206 3.77273L45.7919 10.642H45.8814L48.1484 3.77273H49.8871L46.8104 12.5H44.8587L41.7862 3.77273H43.5206ZM51.0366 12.5V3.77273H52.6175V11.1747H56.4613V12.5H51.0366ZM60.7248 12.5V11.358L63.7546 8.38778C64.0444 8.09517 64.2859 7.83523 64.479 7.60795C64.6722 7.38068 64.8171 7.16051 64.9137 6.94744C65.0103 6.73437 65.0586 6.5071 65.0586 6.26562C65.0586 5.99006 64.9961 5.75426 64.8711 5.55824C64.7461 5.35938 64.5742 5.20597 64.3555 5.09801C64.1367 4.99006 63.8881 4.93608 63.6097 4.93608C63.3228 4.93608 63.0714 4.99574 62.8555 5.11506C62.6396 5.23153 62.4719 5.39773 62.3526 5.61364C62.2362 5.82955 62.1779 6.08665 62.1779 6.38494H60.6737C60.6737 5.83097 60.8001 5.34943 61.0529 4.94034C61.3058 4.53125 61.6538 4.21449 62.0969 3.99006C62.543 3.76562 63.0543 3.65341 63.631 3.65341C64.2163 3.65341 64.7305 3.76278 65.1737 3.98153C65.6168 4.20028 65.9606 4.5 66.2049 4.88068C66.4521 5.26136 66.5756 5.69602 66.5756 6.18466C66.5756 6.51136 66.5131 6.83239 66.3881 7.14773C66.2631 7.46307 66.043 7.8125 65.7276 8.19602C65.4151 8.57955 64.9762 9.04403 64.4109 9.58949L62.9066 11.1193V11.179H66.7077V12.5H60.7248Z" fill="white"/>
<defs>
<linearGradient id="paint0_linear_2220_4749" x1="27.4999" y1="3.00391" x2="27.4999" y2="12.9989" gradientUnits="userSpaceOnUse">
<stop stop-color="white"/>
<stop offset="1" stop-color="#F9F9F9"/>
</linearGradient>
</defs>
</svg>
