<svg width="32" height="32" viewBox="0 0 32 32" fill="none" xmlns="http://www.w3.org/2000/svg">
    <rect width="32" height="32" rx="16" fill="#161421" />
    <path
        d="M15.9838 22C15.7834 21.9998 15.5878 21.9393 15.4224 21.8263C12.9712 20.1624 11.9099 19.0215 11.3244 18.3082C10.0769 16.7877 9.4796 15.2267 9.49644 13.5363C9.51609 11.5991 11.0702 10.0234 12.9609 10.0234C14.3357 10.0234 15.2879 10.7979 15.8425 11.4429C15.8601 11.4631 15.8818 11.4793 15.9061 11.4904C15.9305 11.5015 15.957 11.5072 15.9838 11.5072C16.0106 11.5072 16.037 11.5015 16.0614 11.4904C16.0858 11.4793 16.1075 11.4631 16.1251 11.4429C16.6796 10.7972 17.6318 10.0234 19.0066 10.0234C20.8973 10.0234 22.4515 11.5991 22.4711 13.5366C22.4879 15.2273 21.89 16.7884 20.6431 18.3085C20.0577 19.0218 18.9963 20.1627 16.5452 21.8266C16.3797 21.9395 16.1841 21.9999 15.9838 22Z"
        fill="white" />
</svg>
