<svg width="14" height="13" viewBox="0 0 14 13" fill="none" xmlns="http://www.w3.org/2000/svg">
    <path
        d="M7.00035 12.0273C6.79963 12.0271 6.60363 11.9664 6.43785 11.8533C3.98191 10.1861 2.91847 9.04297 2.33191 8.32828C1.08191 6.80484 0.483472 5.24078 0.500347 3.54703C0.520035 1.60609 2.07722 0.0273438 3.9716 0.0273438C5.3491 0.0273438 6.30316 0.803281 6.85878 1.44953C6.8764 1.46977 6.89815 1.486 6.92257 1.49712C6.94699 1.50825 6.97351 1.514 7.00035 1.514C7.02718 1.514 7.0537 1.50825 7.07812 1.49712C7.10254 1.486 7.12429 1.46977 7.14191 1.44953C7.69753 0.802656 8.6516 0.0273438 10.0291 0.0273438C11.9235 0.0273438 13.4807 1.60609 13.5003 3.54734C13.5172 5.24141 12.9182 6.80547 11.6688 8.32859C11.0822 9.04328 10.0188 10.1864 7.56285 11.8536C7.39703 11.9666 7.20103 12.0272 7.00035 12.0273Z"
        fill="#B79654" />
</svg>
