<svg width="18" height="18" viewBox="0 0 18 18" fill="none" xmlns="http://www.w3.org/2000/svg">
<g clip-path="url(#clip0_2236_11060)">
<path d="M0.75 0.750313L17.25 17.2503M11.25 7.00531V3.00031C11.2506 2.44233 11.0438 1.90405 10.6698 1.48996C10.2958 1.07587 9.78128 0.815519 9.22612 0.759443C8.67097 0.703367 8.11478 0.85557 7.66554 1.1865C7.21629 1.51744 6.90604 2.00349 6.795 2.55031M12.75 12.7128C12.0178 13.4601 11.0791 13.9717 10.0542 14.1818C9.02932 14.3919 7.96502 14.291 6.99787 13.892C6.03072 13.4931 5.20482 12.8143 4.62613 11.9427C4.04744 11.0711 3.74235 10.0465 3.75 9.00031V7.50031M14.25 7.50031V9.00031C14.2497 9.30964 14.2221 9.61834 14.1675 9.92281M9 14.2503V17.2503M6 17.2503H12M6.75 6.75031V9.00031C6.75039 9.44503 6.88256 9.87966 7.12982 10.2493C7.37708 10.619 7.72834 10.907 8.13923 11.0772C8.55012 11.2473 9.00221 11.2919 9.43841 11.2052C9.87461 11.1186 10.2753 10.9046 10.59 10.5903L6.75 6.75031Z" stroke="#999999" stroke-width="1.5" stroke-linecap="round" stroke-linejoin="round"/>
</g>
<defs>
<clipPath id="clip0_2236_11060">
<rect width="18" height="18" fill="white"/>
</clipPath>
</defs>
</svg>
