<svg width="61" height="60" viewBox="0 0 61 60" fill="none" xmlns="http://www.w3.org/2000/svg">
<g clip-path="url(#clip0_486_11435)">
<g clip-path="url(#clip1_486_11435)">
<path d="M53.0435 30.1367V35.4208C53.0435 38.9279 50.2004 41.7697 46.6946 41.7697H28.8082C27.1362 38.0067 26.0268 34.0831 25.4473 30.1367H53.0435Z" fill="#73DA8C"/>
<path d="M28.8089 41.7697H15.5582C12.0511 41.7697 9.20801 38.9279 9.20801 35.4208V30.1367H25.4479C26.0273 34.0831 27.1369 38.0067 28.8089 41.7697Z" fill="#29CE69"/>
<path d="M50.8962 31.348C53.5458 31.348 55.6937 29.2001 55.6937 26.5505C55.6937 23.9009 53.5458 21.7529 50.8962 21.7529C48.2466 21.7529 46.0986 23.9009 46.0986 26.5505C46.0986 29.2001 48.2466 31.348 50.8962 31.348Z" fill="#FFCBBE"/>
<path d="M11.3552 31.348C14.0048 31.348 16.1527 29.2001 16.1527 26.5505C16.1527 23.9009 14.0048 21.7529 11.3552 21.7529C8.70555 21.7529 6.55762 23.9009 6.55762 26.5505C6.55762 29.2001 8.70555 31.348 11.3552 31.348Z" fill="#FFCBBE"/>
<path d="M44.6318 60.0011H43.8664C36.099 57.1629 32.2071 52.5155 31.8857 47.5049H41.697C44.4905 49.8698 46.4802 53.1547 47.1984 56.8924C47.5086 58.5053 46.2736 60.0011 44.6318 60.0011Z" fill="#F8EA69"/>
<path d="M43.866 60.0011H17.6206C15.9788 60.0011 14.7426 58.5053 15.0528 56.8924C15.7723 53.1547 17.7618 49.8698 20.5554 47.5049H31.8855C34.8576 52.1696 38.827 56.4373 43.866 60.0011Z" fill="#F6CA56"/>
<path d="M41.6964 47.5046C41.0504 50.2607 39.3543 52.6124 37.0533 54.1154C32.8699 52.1896 30.088 48.5313 30.5004 45.1733H38.0638C39.3723 45.7866 40.5937 46.5705 41.6964 47.5046Z" fill="#73DA8C"/>
<path d="M37.0539 54.1154C35.3493 55.2285 33.3139 55.8756 31.1263 55.8756C25.9859 55.8756 21.6796 52.3022 20.5557 47.5046C21.6581 46.5702 22.8796 45.7863 24.1882 45.1733H30.5009C32.2491 48.3352 34.4257 51.3448 37.0539 54.1154Z" fill="#29CE69"/>
<path d="M37.9921 45.1733C37.9365 47.7134 36.5011 49.9142 34.4066 51.0563C31.4111 49.6444 29.9527 47.49 30.4999 45.1733H37.9921Z" fill="#FFCBBE"/>
<path d="M34.4071 51.0563C33.4328 51.5875 32.3149 51.8892 31.1258 51.8892C27.3821 51.8892 24.34 48.8965 24.2578 45.1733H30.5005C31.641 47.237 32.9475 49.2045 34.4071 51.0563Z" fill="#FFB39D"/>
<path d="M50.9811 26.562C50.9811 37.4984 42.1393 46.3681 31.2161 46.4175C20.2297 35.3073 20.9049 17.3734 28.1872 6.92381C29.1599 6.77858 30.1421 6.70595 31.1256 6.70655C42.091 6.70643 50.9811 15.5965 50.9811 26.562Z" fill="#FFDDCF"/>
<path d="M31.2166 46.4177H31.1261C20.1594 46.4177 11.2705 37.5287 11.2705 26.5621C11.2705 16.5951 18.6142 8.34238 28.1876 6.92383C23.2391 18.9395 23.7921 33.9746 31.2166 46.4177Z" fill="#FFCBBE"/>
<path d="M15.2877 15.8871C13.7762 17.4976 12.5189 19.7475 11.6279 22.7909C10.4097 23.1701 9.16273 23.2896 7.83594 23.2896C7.83594 22.0087 7.93977 20.752 8.1377 19.5279C8.1377 19.5279 10.8686 15.3376 15.2877 15.8871Z" fill="#5972A5"/>
<path d="M38.6469 14.0705C35.6879 16.1325 31.0823 18.3611 25.1077 19.9365C24.0111 17.4015 24.3353 14.4035 26.3439 12.4854C30.55 12.0132 35.2341 12.4238 38.6469 14.0705Z" fill="#687DAA"/>
<path d="M26.3444 12.4854C25.7251 14.9035 25.3098 17.4001 25.1082 19.9365C22.863 20.5296 20.4249 21.031 17.8082 21.3958C17.5296 21.4346 17.2739 21.2262 17.2603 20.9454C17.1598 18.8814 17.6482 16.6704 18.1848 15.0495C20.0523 13.7663 23.0523 12.8548 26.3444 12.4854Z" fill="#5972A5"/>
<path d="M54.4152 23.2894C53.1344 23.2899 51.8593 23.1202 50.6232 22.7848C49.7323 19.7438 48.4973 17.5321 46.9834 15.9229C51.995 16.0001 54.1133 19.5325 54.1133 19.5325C54.3151 20.7746 54.416 22.031 54.4152 23.2894Z" fill="#687DAA"/>
<path d="M21.5214 33.7033C23.4786 33.7033 25.0653 32.4398 25.0653 30.8812C25.0653 29.3226 23.4786 28.0591 21.5214 28.0591C19.5642 28.0591 17.9775 29.3226 17.9775 30.8812C17.9775 32.4398 19.5642 33.7033 21.5214 33.7033Z" fill="#FFA1AC"/>
<path d="M40.7304 33.7033C42.6876 33.7033 44.2743 32.4398 44.2743 30.8812C44.2743 29.3226 42.6876 28.0591 40.7304 28.0591C38.7732 28.0591 37.1865 29.3226 37.1865 30.8812C37.1865 32.4398 38.7732 33.7033 40.7304 33.7033Z" fill="#FFA1AC"/>
<path d="M23.5859 29.0438C23.3528 29.0438 23.1293 28.9512 22.9645 28.7863C22.7996 28.6215 22.707 28.398 22.707 28.1649V26.7163C22.707 26.2308 23.1005 25.8374 23.5859 25.8374C24.0713 25.8374 24.4648 26.2308 24.4648 26.7163V28.1649C24.4648 28.398 24.3722 28.6215 24.2074 28.7863C24.0426 28.9512 23.819 29.0438 23.5859 29.0438ZM38.6641 29.0438C38.431 29.0438 38.2074 28.9512 38.0426 28.7863C37.8778 28.6215 37.7852 28.398 37.7852 28.1649V26.7163C37.7852 26.2308 38.1787 25.8374 38.6641 25.8374C39.1495 25.8374 39.543 26.2308 39.543 26.7163V28.1649C39.543 28.398 39.4504 28.6215 39.2856 28.7863C39.1208 28.9512 38.8972 29.0438 38.6641 29.0438ZM31.125 29.9062C30.6226 29.906 30.1262 29.7982 29.669 29.59C29.2119 29.3818 28.8046 29.0781 28.4748 28.6992C28.3216 28.5235 28.2446 28.2942 28.2605 28.0616C28.2765 27.8291 28.3841 27.6124 28.5598 27.4593C28.6468 27.3834 28.7479 27.3254 28.8573 27.2886C28.9668 27.2518 29.0823 27.2369 29.1975 27.2448C29.3127 27.2527 29.4252 27.2833 29.5285 27.3346C29.6319 27.386 29.7241 27.4573 29.7999 27.5444C30.1345 27.9281 30.6175 28.1483 31.125 28.1483C31.6324 28.1483 32.1154 27.9281 32.45 27.5444C32.5258 27.4573 32.6181 27.3861 32.7214 27.3348C32.8248 27.2834 32.9373 27.2529 33.0524 27.245C33.1676 27.2371 33.2832 27.2519 33.3926 27.2887C33.502 27.3255 33.6031 27.3834 33.6901 27.4593C33.7771 27.5351 33.8483 27.6273 33.8997 27.7307C33.9511 27.834 33.9816 27.9465 33.9895 28.0616C33.9974 28.1768 33.9825 28.2924 33.9458 28.4018C33.909 28.5112 33.851 28.6122 33.7752 28.6992C33.4453 29.0781 33.0381 29.3818 32.5809 29.59C32.1238 29.7982 31.6273 29.906 31.125 29.9062Z" fill="#495560"/>
<path d="M54.1138 19.5333C48.0715 14.9831 38.9811 13.654 31.1267 13.5913C29.4257 13.6166 27.7186 13.689 26.0249 13.8256C24.7953 8.00252 27.8744 1.92553 31.8801 0.012207C43.1243 0.369512 52.3561 8.69838 54.1138 19.5333Z" fill="#73DA8C"/>
<path d="M31.8784 0.0120703C29.1162 4.10098 27.1388 8.81414 26.0233 13.8253C19.4727 14.3565 13.1227 15.8692 8.13672 19.5284C9.93555 8.45437 19.5428 0 31.125 0C31.3773 0 31.6285 0.00363281 31.8784 0.0120703Z" fill="#29CE69"/>
<path d="M38.6162 9.38113C38.6719 9.7007 38.408 9.98711 38.086 9.94844C35.8696 9.68242 33.5364 9.53969 31.1263 9.53969C29.7815 9.53969 28.4608 9.58434 27.1713 9.67012C26.6585 7.5973 27.6578 5.05855 29.4397 4.18316C29.5732 4.1745 29.7068 4.17008 29.8405 4.16992H32.4108C35.5197 4.1698 38.1007 6.42074 38.6162 9.38113Z" fill="#687DAA"/>
<path d="M29.4393 4.18213C28.5555 5.93748 27.7975 7.77252 27.1709 9.66908C26.1671 9.73496 25.1652 9.82785 24.1664 9.94764C23.8482 9.98572 23.5795 9.70553 23.634 9.38982C24.1232 6.5533 26.5093 4.36541 29.4393 4.18213Z" fill="#5972A5"/>
</g>
</g>
<defs>
<clipPath id="clip0_486_11435">
<rect width="60" height="60" fill="white" transform="translate(0.5)"/>
</clipPath>
<clipPath id="clip1_486_11435">
<rect width="60" height="60" fill="white" transform="translate(1.125)"/>
</clipPath>
</defs>
</svg>
