<svg width="16" height="16" viewBox="0 0 16 16" fill="none" xmlns="http://www.w3.org/2000/svg">
<path d="M6.66064 15.1867C6.26064 15.1867 5.88065 14.9867 5.62065 14.6333L4.82066 13.5667C4.82066 13.5733 4.78732 13.5533 4.77399 13.5533H4.52732C2.24732 13.5533 0.833984 12.9333 0.833984 9.86001V7.19334C0.833984 4.38667 2.54732 3.65334 3.98732 3.52667C4.14732 3.50667 4.33399 3.5 4.52732 3.5H8.79399C11.2073 3.5 12.4873 4.78001 12.4873 7.19334V9.86001C12.4873 10.0533 12.4806 10.24 12.454 10.42C12.334 11.84 11.6007 13.5533 8.79399 13.5533H8.52732L7.70064 14.6333C7.44064 14.9867 7.06064 15.1867 6.66064 15.1867ZM4.52732 4.5C4.37399 4.5 4.22732 4.50667 4.08732 4.52C2.54065 4.65333 1.83398 5.50001 1.83398 7.19334V9.86001C1.83398 12.1467 2.54066 12.5533 4.52732 12.5533H4.79399C5.09399 12.5533 5.43398 12.72 5.62065 12.96L6.42065 14.0333C6.56732 14.2333 6.75399 14.2333 6.90065 14.0333L7.70064 12.9667C7.89398 12.7067 8.20066 12.5533 8.52732 12.5533H8.79399C10.4873 12.5533 11.334 11.84 11.4607 10.32C11.4807 10.16 11.4873 10.0133 11.4873 9.86001V7.19334C11.4873 5.33334 10.654 4.5 8.79399 4.5H4.52732Z" fill="#999999"/>
<path d="M6.66081 9.46029C6.28747 9.46029 5.99414 9.16029 5.99414 8.79362C5.99414 8.42695 6.29414 8.12695 6.66081 8.12695C7.02747 8.12695 7.32747 8.42695 7.32747 8.79362C7.32747 9.16029 7.03414 9.46029 6.66081 9.46029Z" fill="#999999"/>
<path d="M8.79362 9.46029C8.42029 9.46029 8.12695 9.16029 8.12695 8.79362C8.12695 8.42695 8.42695 8.12695 8.79362 8.12695C9.16029 8.12695 9.46029 8.42695 9.46029 8.79362C9.46029 9.16029 9.16029 9.46029 8.79362 9.46029Z" fill="#999999"/>
<path d="M4.53385 9.46029C4.16052 9.46029 3.86719 9.16029 3.86719 8.79362C3.86719 8.42695 4.16719 8.12695 4.53385 8.12695C4.90052 8.12695 5.20052 8.42695 5.20052 8.79362C5.20052 9.16029 4.90052 9.46029 4.53385 9.46029Z" fill="#999999"/>
<path d="M11.9598 10.8607C11.8264 10.8607 11.6931 10.8073 11.5998 10.7073C11.4931 10.6006 11.4464 10.4473 11.4664 10.3007C11.4864 10.1607 11.4931 10.014 11.4931 9.86066V7.19399C11.4931 5.33399 10.6598 4.50065 8.79977 4.50065H4.53309C4.37976 4.50065 4.23311 4.50732 4.09311 4.52065C3.94644 4.54065 3.7931 4.48731 3.68643 4.38731C3.57976 4.28064 3.51976 4.13399 3.53309 3.98733C3.65309 2.54733 4.39309 0.833984 7.19976 0.833984H11.4664C13.8798 0.833984 15.1598 2.11399 15.1598 4.52732V7.19399C15.1598 10.0007 13.4464 10.734 12.0064 10.8607C11.9864 10.8607 11.9731 10.8607 11.9598 10.8607ZM4.61311 3.50065H8.7931C11.2064 3.50065 12.4864 4.78066 12.4864 7.19399V9.77399C13.6198 9.49399 14.1531 8.66066 14.1531 7.19399V4.52732C14.1531 2.66732 13.3198 1.83398 11.4598 1.83398H7.1931C5.72644 1.83398 4.89977 2.36732 4.61311 3.50065Z" fill="#999999"/>
</svg>
