<svg width="20" height="20" viewBox="0 0 20 20" fill="none" xmlns="http://www.w3.org/2000/svg">
    <path
        d="M12.6532 2.1794C12.0683 1.8537 11.3931 1.66699 10.6697 1.66699H9.25061C6.79692 1.66699 4.89846 3.81753 5.20281 6.25227L5.26894 6.78131C5.39072 7.75558 5.03484 8.72874 4.31327 9.3946C3.32767 10.3041 3.05384 11.7517 3.63914 12.9583L3.72527 13.1359C4.27841 14.2762 5.43443 15.0003 6.70185 15.0003H13.5525C14.6386 15.0003 15.6494 14.4455 16.2326 13.5292C17.0557 12.2358 16.8377 10.5391 15.7143 9.49577L15.6777 9.4618C15.3332 9.14186 15.0677 8.7559 14.892 8.33366C14.8203 8.16123 14.7635 7.98274 14.7225 7.80023M7.65329 17.5003L7.90329 17.8337C9.02829 19.3337 11.2783 19.3337 12.4033 17.8337L12.6533 17.5003"
        stroke="white" stroke-width="1.5" stroke-linecap="round" />
    <path
        d="M15.9876 5.00065C15.9876 5.92113 15.2414 6.66732 14.321 6.66732C13.4005 6.66732 12.6543 5.92113 12.6543 5.00065C12.6543 4.08018 13.4005 3.33398 14.321 3.33398C15.2414 3.33398 15.9876 4.08018 15.9876 5.00065Z"
        fill="#5899FF" />
</svg>
