<svg width="12" height="12" viewBox="0 0 12 12" fill="none" xmlns="http://www.w3.org/2000/svg">
    <g clip-path="url(#clip0_378_14118)">
        <path
            d="M6 11.25C4.60761 11.25 3.27226 10.6969 2.28769 9.71231C1.30312 8.72774 0.75 7.39239 0.75 6C0.75 4.60761 1.30312 3.27226 2.28769 2.28769C3.27226 1.30312 4.60761 0.75 6 0.75C7.39239 0.75 8.72774 1.30312 9.71231 2.28769C10.6969 3.27226 11.25 4.60761 11.25 6C11.25 7.39239 10.6969 8.72774 9.71231 9.71231C8.72774 10.6969 7.39239 11.25 6 11.25ZM6 12C7.5913 12 9.11742 11.3679 10.2426 10.2426C11.3679 9.11742 12 7.5913 12 6C12 4.4087 11.3679 2.88258 10.2426 1.75736C9.11742 0.632141 7.5913 0 6 0C4.4087 0 2.88258 0.632141 1.75736 1.75736C0.632141 2.88258 0 4.4087 0 6C0 7.5913 0.632141 9.11742 1.75736 10.2426C2.88258 11.3679 4.4087 12 6 12Z"
            fill="white" />
        <path
            d="M6 3C6.09946 3 6.19484 3.03951 6.26517 3.10984C6.33549 3.18016 6.375 3.27554 6.375 3.375V5.625H8.625C8.72446 5.625 8.81984 5.66451 8.89017 5.73484C8.96049 5.80516 9 5.90054 9 6C9 6.09946 8.96049 6.19484 8.89017 6.26517C8.81984 6.33549 8.72446 6.375 8.625 6.375H6.375V8.625C6.375 8.72446 6.33549 8.81984 6.26517 8.89017C6.19484 8.96049 6.09946 9 6 9C5.90054 9 5.80516 8.96049 5.73484 8.89017C5.66451 8.81984 5.625 8.72446 5.625 8.625V6.375H3.375C3.27554 6.375 3.18016 6.33549 3.10984 6.26517C3.03951 6.19484 3 6.09946 3 6C3 5.90054 3.03951 5.80516 3.10984 5.73484C3.18016 5.66451 3.27554 5.625 3.375 5.625H5.625V3.375C5.625 3.27554 5.66451 3.18016 5.73484 3.10984C5.80516 3.03951 5.90054 3 6 3Z"
            fill="white" />
    </g>
    <defs>
        <clipPath id="clip0_378_14118">
            <rect width="12" height="12" fill="white" />
        </clipPath>
    </defs>
</svg>
