<svg width="32" height="32" viewBox="0 0 32 32" fill="none" xmlns="http://www.w3.org/2000/svg">
<rect x="0.5" y="0.5" width="31" height="31" rx="15.5" stroke="#D0D0DD"/>
<path d="M10 15.5C10 16.6027 10.8973 17.5 12 17.5C12.5293 17.5 13.008 17.29 13.366 16.9533L17.36 19.236C17.348 19.3227 17.3333 19.4093 17.3333 19.5C17.3333 20.6027 18.2307 21.5 19.3333 21.5C20.436 21.5 21.3333 20.6027 21.3333 19.5C21.3333 18.3973 20.436 17.5 19.3333 17.5C18.804 17.5 18.3253 17.71 17.9673 18.0467L13.9733 15.7647C13.9853 15.6773 14 15.5907 14 15.5C14 15.4093 13.9853 15.3227 13.9733 15.2353L17.9673 12.9533C18.3253 13.29 18.804 13.5 19.3333 13.5C20.436 13.5 21.3333 12.6027 21.3333 11.5C21.3333 10.3973 20.436 9.5 19.3333 9.5C18.2307 9.5 17.3333 10.3973 17.3333 11.5C17.3333 11.5907 17.348 11.6773 17.36 11.7647L13.366 14.0467C12.9973 13.6965 12.5085 13.5008 12 13.5C10.8973 13.5 10 14.3973 10 15.5Z" fill="#EAEAF0"/>
</svg>
