<svg width="12" height="12" viewBox="0 0 12 12" fill="none" xmlns="http://www.w3.org/2000/svg">
    <g clip-path="url(#clip0_2099_1000)">
        <path
            d="M10.6112 3.70107L7.47668 3.41035L6.23154 0.519028C6.14435 0.316574 5.85731 0.316574 5.77015 0.519028L4.525 3.41033L1.39044 3.70107C1.17095 3.72142 1.08226 3.99442 1.24785 4.13989L3.61288 6.21754L2.92075 9.28853C2.87228 9.50357 3.10452 9.67228 3.29404 9.55975L6.00084 7.9525L8.70764 9.55975C8.89718 9.6723 9.12938 9.50357 9.08093 9.28853L8.38878 6.21754L10.7538 4.13989C10.9194 3.99442 10.8307 3.72142 10.6112 3.70107Z"
            fill="#FFDC64" />
        <path
            d="M2.79557 0.420742C2.95537 0.642695 3.4064 1.5959 3.66426 2.15142C3.70481 2.23875 3.59524 2.31764 3.52528 2.25147C3.08027 1.83072 2.31937 1.10059 2.15957 0.878618C2.03313 0.703 2.07299 0.458125 2.24863 0.331679C2.42425 0.205234 2.66913 0.245124 2.79557 0.420742ZM9.20443 0.420742C9.04463 0.642695 8.5936 1.5959 8.33574 2.15142C8.29519 2.23875 8.40476 2.31764 8.47472 2.25147C8.91973 1.83072 9.68061 1.10057 9.84043 0.878618C9.96688 0.703 9.92701 0.458125 9.75137 0.331679C9.57575 0.205234 9.33087 0.245124 9.20443 0.420742ZM11.7296 6.92949C11.4696 6.84469 10.4244 6.70461 9.81678 6.62773C9.72127 6.61564 9.67941 6.744 9.76367 6.79055C10.2998 7.08668 11.2266 7.58975 11.4866 7.67455C11.6923 7.74165 11.9135 7.62926 11.9806 7.42351C12.0477 7.21775 11.9353 6.99659 11.7296 6.92949ZM0.270435 6.92949C0.530451 6.84469 1.57565 6.70461 2.18322 6.62773C2.27873 6.61564 2.32059 6.744 2.23633 6.79055C1.70024 7.08668 0.773452 7.58975 0.513436 7.67455C0.307701 7.74165 0.0865208 7.62926 0.0194191 7.42351C-0.0476826 7.21775 0.0647004 6.99659 0.270435 6.92949ZM5.62017 11.3517C5.62017 11.0782 5.81107 10.0411 5.92638 9.43963C5.9445 9.34508 6.07952 9.34508 6.09764 9.43963C6.21295 10.0411 6.40385 11.0782 6.40385 11.3517C6.40385 11.5681 6.22842 11.7435 6.01202 11.7435C5.7956 11.7436 5.62017 11.5681 5.62017 11.3517Z"
            fill="#FFF082" />
        <path
            d="M6.68431 1.57044L6.23152 0.519028C6.14433 0.316574 5.85729 0.316574 5.77012 0.519028L4.52498 3.41033L1.39044 3.70107C1.17095 3.72142 1.08226 3.99442 1.24785 4.13989L3.61288 6.21754L2.92075 9.28854C2.87228 9.50358 3.10452 9.67228 3.29404 9.55976L3.6543 9.34584C4.2449 5.52271 5.90526 2.71625 6.68431 1.57044Z"
            fill="#FFC850" />
    </g>
    <defs>
        <clipPath id="clip0_2099_1000">
            <rect width="12" height="12" fill="white" />
        </clipPath>
    </defs>
</svg>
