<svg width="20" height="20" viewBox="0 0 20 20" fill="none" xmlns="http://www.w3.org/2000/svg">
<circle cx="10" cy="10" r="6" fill="white"/>
<path fill-rule="evenodd" clip-rule="evenodd" d="M3.21207 5.80102C3.22707 6.56002 2.81407 7.58602 2.27707 8.12202C2.0301 8.36886 1.83418 8.66194 1.70051 8.98451C1.56685 9.30709 1.49805 9.65285 1.49805 10.002C1.49805 10.3512 1.56685 10.6969 1.70051 11.0195C1.83418 11.3421 2.0301 11.6352 2.27707 11.882C2.80707 12.41 3.19707 13.326 3.21207 14.074C3.22607 14.736 3.48507 15.394 3.99007 15.898C4.45587 16.365 5.07921 16.6414 5.73807 16.673C6.52907 16.713 7.56507 17.173 8.12507 17.733C8.37189 17.9798 8.6649 18.1756 8.98739 18.3092C9.30987 18.4428 9.65551 18.5115 10.0046 18.5115C10.3536 18.5115 10.6993 18.4428 11.0217 18.3092C11.3442 18.1756 11.6372 17.9798 11.8841 17.733C12.4441 17.173 13.4801 16.713 14.2711 16.673C14.9299 16.6414 15.5533 16.365 16.0191 15.898C16.5048 15.413 16.7833 14.7583 16.7961 14.072C16.8111 13.326 17.1961 12.416 17.7251 11.888C18.2253 11.3894 18.5069 10.7125 18.508 10.0063C18.5091 9.3 18.2297 8.62222 17.7311 8.12202C17.1951 7.58702 16.7811 6.56002 16.7971 5.80202C16.8046 5.44414 16.7395 5.08844 16.6058 4.75638C16.4721 4.42433 16.2725 4.12281 16.0191 3.87002C15.7564 3.60671 15.4412 3.40163 15.094 3.26811C14.7469 3.13459 14.3755 3.07561 14.0041 3.09502C13.2901 3.13102 12.3891 2.78502 11.8841 2.27902C11.6372 2.03205 11.3442 1.83613 11.0216 1.70247C10.699 1.5688 10.3532 1.5 10.0041 1.5C9.65489 1.5 9.30914 1.5688 8.98656 1.70247C8.66398 1.83613 8.3709 2.03205 8.12407 2.27902C7.62007 2.78402 6.71807 3.13102 6.00407 3.09502C5.63279 3.07576 5.26161 3.1348 4.91464 3.26832C4.56767 3.40184 4.25266 3.60684 3.99007 3.87002C3.73675 4.12269 3.53721 4.42405 3.4035 4.75592C3.26979 5.08779 3.20467 5.4433 3.21207 5.80102ZM13.0401 6.62702C13.1549 6.69075 13.2561 6.7765 13.3378 6.87934C13.4195 6.98219 13.4802 7.10013 13.5163 7.22643C13.5524 7.35273 13.5633 7.4849 13.5484 7.61541C13.5334 7.74591 13.4929 7.87219 13.4291 7.98702L10.6611 12.969C10.5888 13.1043 10.4869 13.2216 10.3631 13.312C10.1823 13.4426 9.96315 13.5091 9.74033 13.5009C9.51751 13.4928 9.30379 13.4104 9.13307 13.267L6.37407 11.06C6.2715 10.9779 6.18611 10.8765 6.12277 10.7614C6.05942 10.6463 6.01936 10.5199 6.00488 10.3893C5.99039 10.2588 6.00176 10.1266 6.03834 10.0005C6.07492 9.87431 6.13599 9.75658 6.21807 9.65402C6.30014 9.55146 6.40162 9.46607 6.51669 9.40272C6.63177 9.33937 6.7582 9.29931 6.88876 9.28483C7.01932 9.27034 7.15145 9.28171 7.27762 9.31829C7.40378 9.35487 7.5215 9.41594 7.62407 9.49802L9.47707 10.981L11.6801 7.01502C11.7439 6.90024 11.8297 6.79916 11.9326 6.71754C12.0355 6.63592 12.1534 6.57537 12.2797 6.53934C12.406 6.50331 12.5381 6.49251 12.6686 6.50755C12.7991 6.5226 12.9253 6.56319 13.0401 6.62702Z" fill="#09080E"/>
</svg>
