<svg width="25" height="24" viewBox="0 0 25 24" fill="none" xmlns="http://www.w3.org/2000/svg">
    <path fill-rule="evenodd" clip-rule="evenodd"
        d="M10.5 11C12.7091 11 14.5 9.20914 14.5 7C14.5 4.79086 12.7091 3 10.5 3C8.29086 3 6.5 4.79086 6.5 7C6.5 9.20914 8.29086 11 10.5 11ZM10.5 21.0003C14.366 21.0003 17.5 19.2095 17.5 17.0003C17.5 14.7912 14.366 13.0003 10.5 13.0003C6.63401 13.0003 3.5 14.7912 3.5 17.0003C3.5 19.2095 6.63401 21.0003 10.5 21.0003ZM14.4614 10.8155C15.4141 9.82652 16 8.48172 16 7.00008C16 6.29549 15.8675 5.62184 15.6261 5.00269C17.2244 5.0688 18.4999 6.38548 18.4999 8.00008C18.4999 9.65694 17.1568 11.0001 15.4999 11.0001C15.1349 11.0001 14.785 10.9349 14.4614 10.8155ZM18.9998 16.9996C18.9998 17.5385 18.8801 18.0592 18.6569 18.5513C20.3633 18.0223 21.4998 17.0773 21.4998 15.9996C21.4998 14.4934 19.2798 13.2465 16.3866 13.0322C17.9973 14.033 18.9998 15.4406 18.9998 16.9996Z"
        fill="white" />
</svg>
