<svg width="14" height="14" viewBox="0 0 14 14" fill="none" xmlns="http://www.w3.org/2000/svg">
<path d="M12.577 6.26386L11.7837 5.34219C11.632 5.16719 11.5095 4.84052 11.5095 4.60719V3.61552C11.5095 2.99719 11.002 2.48969 10.3837 2.48969H9.39203C9.16453 2.48969 8.83203 2.36719 8.65703 2.21552L7.73536 1.42219C7.33286 1.07802 6.67369 1.07802 6.26536 1.42219L5.34951 2.22135C5.17451 2.36719 4.84201 2.48969 4.61451 2.48969H3.60534C2.98701 2.48969 2.47951 2.99719 2.47951 3.61552V4.61302C2.47951 4.84052 2.35701 5.16719 2.21117 5.34219L1.42367 6.26969C1.08534 6.67219 1.08534 7.32553 1.42367 7.72803L2.21117 8.65553C2.35701 8.83053 2.47951 9.15719 2.47951 9.38469V10.3822C2.47951 11.0005 2.98701 11.508 3.60534 11.508H4.61451C4.84201 11.508 5.17451 11.6305 5.34951 11.7822L6.27119 12.5755C6.6737 12.9197 7.33286 12.9197 7.74119 12.5755L8.66286 11.7822C8.83786 11.6305 9.16453 11.508 9.39786 11.508H10.3895C11.0079 11.508 11.5154 11.0005 11.5154 10.3822V9.39053C11.5154 9.16303 11.6379 8.83053 11.7895 8.65553L12.5829 7.73386C12.9212 7.33136 12.9212 6.66636 12.577 6.26386ZM9.42703 5.89636L6.60953 8.71386C6.52786 8.79553 6.41703 8.84219 6.30036 8.84219C6.1837 8.84219 6.07286 8.79553 5.99119 8.71386L4.57951 7.30219C4.41034 7.13303 4.41034 6.85303 4.57951 6.68386C4.74867 6.51469 5.02867 6.51469 5.19784 6.68386L6.30036 7.78636L8.80869 5.27802C8.97786 5.10885 9.25786 5.10885 9.42703 5.27802C9.5962 5.44719 9.5962 5.72719 9.42703 5.89636Z" fill="white"/>
</svg>
