<svg width="24" height="24" viewBox="0 0 24 24" fill="none" xmlns="http://www.w3.org/2000/svg">
    <g clip-path="url(#clip0_448_37039)">
        <path
            d="M5.45433 4.4388H2.74219V2.78027H5.45433V4.4388ZM13.4668 2.78027H10.6439L10.2306 5.3359L11.6626 4.4388H13.4668V2.78027Z"
            fill="#7A6D79" />
        <path
            d="M0.780469 6.24387C1.21153 6.24387 1.56094 5.89441 1.56094 5.4634L2.22206 3.60973L1.56098 1.75605C1.56098 1.32499 1.21153 0.975586 0.780516 0.975586C0.349453 0.975586 0 1.32504 0 1.75605V5.46335C0 5.89446 0.349453 6.24387 0.780469 6.24387Z"
            fill="#918291" />
        <path
            d="M2.34102 7.2195C2.77208 7.2195 3.12148 6.87005 3.12148 6.43903V0.780469C3.12153 0.349453 2.77208 0 2.34102 0C1.90995 0 1.56055 0.349453 1.56055 0.780469V6.43898C1.56055 6.87009 1.90995 7.2195 2.34102 7.2195Z"
            fill="#B5ADB6" />
        <path
            d="M15.4679 0.975586C15.0368 0.975586 14.6874 1.32504 14.6874 1.75605L14.1562 3.60973L14.6874 5.4634C14.6874 5.89446 15.0368 6.24387 15.4679 6.24387C15.8989 6.24387 16.2483 5.89441 16.2483 5.4634V1.75605C16.2484 1.32504 15.8989 0.975586 15.4679 0.975586Z"
            fill="#918291" />
        <path
            d="M13.9074 0C13.4764 0 13.127 0.349453 13.127 0.780469V6.43898C13.127 6.87005 13.4764 7.21945 13.9074 7.21945C14.3385 7.21945 14.6879 6.87 14.6879 6.43898V0.780469C14.6879 0.349453 14.3384 0 13.9074 0Z"
            fill="#B5ADB6" />
        <path
            d="M5.07422 1.98093C5.07422 1.58324 5.37984 1.2411 5.77706 1.2224C6.20119 1.20243 6.5513 1.54035 6.5513 1.96007V1.40751C6.5513 1.00982 6.85692 0.667631 7.25414 0.648928C7.67827 0.628959 8.02838 0.966881 8.02838 1.3866V1.24082C8.02838 0.843131 8.334 0.50099 8.73122 0.482287C9.15534 0.462318 9.50545 0.80024 9.50545 1.21996V1.38655C9.5055 0.966834 9.85561 0.628959 10.2797 0.648928C10.6769 0.667631 10.9825 1.00963 10.9825 1.40732V4.14744C10.9825 4.1857 10.99 4.22358 11.0047 4.25892C11.0194 4.29426 11.0408 4.32637 11.0679 4.3534C11.095 4.38043 11.1271 4.40187 11.1625 4.41647C11.1978 4.43108 11.2357 4.43858 11.274 4.43854H11.663V6.20385C11.663 6.55191 11.579 6.89483 11.418 7.20343C11.257 7.51204 11.0239 7.7772 10.7385 7.97638L9.84375 8.60066V9.73321C9.84375 10.5587 9.97692 11.3785 10.238 12.1616C10.5865 13.2068 11.0398 14.8333 11.0398 16.2223C14.6898 13.3896 19.6582 14.4335 19.6582 14.4335C20.6344 12.6314 22.5456 12.1636 23.4722 12.0421C23.7527 12.0053 24.0011 12.2241 24.0011 12.507V23.5117C24.0011 23.7811 23.7827 23.9995 23.5133 23.9995H22.604C22.5161 23.9995 22.43 23.9748 22.3554 23.9282C22.2809 23.8816 22.221 23.815 22.1825 23.7359L21.597 22.5336C21.246 21.8126 20.4364 21.4372 19.6598 21.637C18.4471 21.949 16.5796 22.341 14.8513 22.341C9.74916 22.341 7.07438 21.6204 5.87864 21.1548C5.39269 20.9656 5.07422 20.4958 5.07422 19.9744V1.98093Z"
            fill="#FED2A4" />
        <path
            d="M5.07422 1.98093C5.07422 1.58324 5.37984 1.2411 5.77706 1.2224C6.20119 1.20243 6.5513 1.54035 6.5513 1.96007V1.40751C6.5513 1.00982 6.85692 0.667631 7.25414 0.648928C7.67827 0.628959 8.02838 0.966881 8.02838 1.3866V1.24082C8.02838 0.843131 8.334 0.50099 8.73122 0.482287C9.15534 0.462318 9.50545 0.80024 9.50545 1.21996V1.38655C9.5055 0.966834 9.85561 0.628959 10.2797 0.648928C10.6769 0.667631 10.9825 1.00963 10.9825 1.40727V2.77996L10.6656 3.20357L10.9825 3.50577V4.14697C10.9825 4.22429 11.0132 4.29843 11.0679 4.35309C11.1225 4.40776 11.1967 4.43848 11.274 4.43849H11.663V6.2038C11.663 6.55187 11.579 6.89478 11.418 7.20339C11.257 7.51199 11.0239 7.77716 10.7385 7.97633L9.84375 8.60062V9.73316C9.84375 10.5587 9.97692 11.3784 10.238 12.1616C10.5865 13.2067 11.0398 14.8333 11.0398 16.2223C14.6898 13.3896 19.6582 14.4334 19.6582 14.4334C20.6344 12.6314 22.5456 12.1635 23.4722 12.042C23.7527 12.0053 24.0011 12.2241 24.0011 12.507V23.5116C24.0011 23.781 23.7827 23.9994 23.5133 23.9994H22.604C22.5161 23.9994 22.43 23.9747 22.3554 23.9281C22.2809 23.8815 22.221 23.8149 22.1825 23.7359L21.597 22.5336C21.246 21.8126 20.4364 21.4371 19.6598 21.637C18.4471 21.9489 16.5796 22.3409 14.8513 22.3409C9.74916 22.3409 7.07438 21.6204 5.87864 21.1548C5.39269 20.9655 5.07422 20.4958 5.07422 19.9743V1.98093Z"
            fill="#FED2A4" />
        <path
            d="M21.3669 12.7232C21.5022 13.3828 21.5703 14.0545 21.5699 14.7279C21.5699 17.556 20.3848 20.1073 18.4844 21.9125C18.8779 21.8297 19.2695 21.7382 19.659 21.6379C20.4356 21.4381 21.2452 21.8135 21.5962 22.5345L22.1817 23.7368C22.2202 23.8159 22.2801 23.8825 22.3546 23.9291C22.4291 23.9757 22.5153 24.0004 22.6031 24.0004H23.5125C23.7819 24.0004 24.0002 23.782 24.0002 23.5126V12.5081C24.0002 12.2251 23.7518 12.0063 23.4712 12.0431C22.9612 12.1101 22.1532 12.2819 21.3669 12.7232Z"
            fill="#FFBD86" />
        <path
            d="M7.6763 3.85816C7.76954 3.85816 7.85896 3.82112 7.92489 3.75519C7.99082 3.68926 8.02786 3.59984 8.02786 3.5066V1.38734C8.02781 0.991383 7.71614 0.668555 7.32473 0.650039V3.5066C7.32473 3.59984 7.36177 3.68926 7.4277 3.75519C7.49364 3.82112 7.58306 3.85816 7.6763 3.85816ZM6.19922 3.85816C6.29246 3.85816 6.38188 3.82112 6.44781 3.75519C6.51374 3.68926 6.55078 3.59984 6.55078 3.5066V1.96066C6.55069 1.56476 6.23902 1.24202 5.84766 1.22351V3.5066C5.84766 3.59984 5.8847 3.68926 5.95063 3.75519C6.01656 3.82112 6.10598 3.85816 6.19922 3.85816ZM9.15337 3.85816C9.24661 3.85816 9.33604 3.82112 9.40197 3.75519C9.4679 3.68926 9.50494 3.59984 9.50494 3.5066V1.22074C9.50494 0.824742 9.19322 0.501914 8.80181 0.483398V3.5066C8.80181 3.59984 8.83885 3.68926 8.90478 3.75519C8.97071 3.82112 9.06013 3.85816 9.15337 3.85816ZM10.2789 0.649711V3.5066C10.2789 3.59984 10.3159 3.68926 10.3819 3.75519C10.4478 3.82112 10.5372 3.85816 10.6305 3.85816C10.7237 3.85816 10.8131 3.82112 10.879 3.75519C10.945 3.68926 10.982 3.59984 10.982 3.5066V1.4081C10.982 1.01046 10.6764 0.668461 10.2792 0.649711H10.2789Z"
            fill="#FFBD86" />
    </g>
    <defs>
        <clipPath id="clip0_448_37039">
            <rect width="24" height="24" fill="white" />
        </clipPath>
    </defs>
</svg>
