<svg width="24" height="24" viewBox="0 0 24 24" fill="none" xmlns="http://www.w3.org/2000/svg">
<path d="M4.64585 13.9109C5.16134 13.3954 5.16134 12.5597 4.64585 12.0442C4.13035 11.5287 3.29458 11.5287 2.77908 12.0442C2.26359 12.5597 2.26359 13.3954 2.77908 13.9109C3.29458 14.4264 4.13035 14.4264 4.64585 13.9109Z" fill="#1363DF"/>
<path d="M20.581 14.2564C21.2904 14.0882 21.729 13.3768 21.5608 12.6674C21.3926 11.9581 20.6812 11.5194 19.9719 11.6876C19.2625 11.8558 18.8239 12.5672 18.9921 13.2766C19.1603 13.9859 19.8717 14.4246 20.581 14.2564Z" fill="#1363DF"/>
<path d="M19.2807 10.5603H18.1607C18.1607 7.16027 15.4007 4.40027 12.0007 4.40027C8.6007 4.40027 5.8407 7.16027 5.8407 10.5603H4.7207C4.7207 6.54027 7.9807 3.28027 12.0007 3.28027C16.0207 3.28027 19.2807 6.54027 19.2807 10.5603Z" fill="#DFF6FF"/>
<path d="M13.8595 20.2799C13.3795 20.2799 13.0595 20.2599 13.0195 20.2599L13.0595 19.8199C13.0995 19.8199 17.6395 20.1599 18.1795 18.2799C18.7795 16.1999 18.4795 13.9999 18.4795 13.9799L18.9195 13.9199C18.9395 13.9999 19.2395 16.2199 18.5995 18.3999C18.0995 20.0599 15.2995 20.2799 13.8595 20.2799Z" fill="white"/>
<path d="M13.6597 20.7207H12.4397C12.0397 20.7207 11.7197 20.4007 11.7197 20.0007C11.7197 19.6007 12.0397 19.2807 12.4397 19.2807H13.6597C14.0597 19.2807 14.3797 19.6007 14.3797 20.0007C14.3797 20.4007 14.0597 20.7207 13.6597 20.7207ZM5.03969 10.1807C4.01969 10.1807 3.17969 11.0207 3.17969 12.0407V14.2007C3.17969 15.2207 4.01969 16.0607 5.03969 16.0607C5.89969 16.0607 6.59969 15.3607 6.59969 14.5007V11.7207C6.57969 10.8607 5.89969 10.1807 5.03969 10.1807ZM18.9597 10.1807C18.0997 10.1807 17.3997 10.8807 17.3997 11.7407V14.5007C17.3997 15.3607 18.0997 16.0607 18.9597 16.0607C19.9797 16.0607 20.8197 15.2207 20.8197 14.2007V12.0207C20.8197 11.0007 19.9797 10.1807 18.9597 10.1807Z" fill="#47B5FF"/>
</svg>
