<svg width="24" height="24" viewBox="0 0 24 24" fill="none" xmlns="http://www.w3.org/2000/svg">
    <path
        d="M22.4398 12.7994L7.89722 20.8031C7.51432 21.0137 7.06343 21.0636 6.64373 20.9418C6.22403 20.8201 5.86989 20.5365 5.65922 20.1537L1.22733 12.1017C1.01681 11.7188 0.966962 11.268 1.08874 10.8484C1.21052 10.4288 1.49396 10.0747 1.87675 9.86402L16.419 1.85932C16.8019 1.64869 17.2528 1.59877 17.6725 1.72056C18.0922 1.84234 18.4463 2.12586 18.657 2.50873L23.0889 10.5611C23.2994 10.944 23.3492 11.3948 23.2275 11.8144C23.1057 12.234 22.8222 12.5881 22.4395 12.7987L22.4398 12.7994Z"
        fill="#FEBC1F" />
    <path
        d="M22.1238 12.2223L7.58081 20.2259C7.19791 20.4366 6.74702 20.4865 6.32732 20.3647C5.90762 20.2429 5.55349 19.9594 5.34281 19.5765L0.910927 11.5245C0.700406 11.1417 0.650555 10.6909 0.772336 10.2712C0.894117 9.85163 1.17756 9.49755 1.56034 9.28688L16.1029 1.28217C16.4858 1.07154 16.9367 1.02162 17.3564 1.14341C17.7761 1.2652 18.1302 1.54871 18.3409 1.93158L22.7728 9.98394C22.9833 10.3668 23.0332 10.8176 22.9114 11.2372C22.7896 11.6568 22.5062 12.0109 22.1234 12.2216L22.1238 12.2223Z"
        fill="#FFD475" />
    <path
        d="M16.1031 1.2827L1.56049 9.28635C1.17761 9.49703 0.894103 9.85116 0.772317 10.2709C0.650531 10.6906 0.700443 11.1414 0.911076 11.5243L5.34296 19.5771C5.34296 19.5771 1.21355 11.6796 17.5734 1.22552C17.3408 1.12013 17.0867 1.07042 16.8315 1.08034C16.5763 1.09027 16.3269 1.15955 16.1031 1.2827Z"
        fill="#FEBC1F" />
    <path
        d="M2.21362 12.5121L2.77021 13.5233C2.8376 13.6456 2.95081 13.7362 3.08496 13.7751C3.21911 13.814 3.36322 13.7981 3.48562 13.7308L18.8273 5.28738C18.9496 5.21999 19.0402 5.10678 19.0791 4.97263C19.118 4.83849 19.1021 4.69437 19.0348 4.57197L18.4782 3.5608C18.4108 3.43845 18.2976 3.34786 18.1635 3.30895C18.0293 3.27004 17.8852 3.28598 17.7628 3.35327L2.42115 11.7967C2.2988 11.8641 2.20822 11.9773 2.1693 12.1114C2.13039 12.2456 2.14633 12.3897 2.21362 12.5121Z"
        fill="#1D2943" />
    <path
        d="M2.05967 12.2318L2.61626 13.243C2.68365 13.3653 2.79686 13.4559 2.93101 13.4948C3.06516 13.5338 3.20927 13.5178 3.33167 13.4505L18.6733 5.00711C18.7957 4.93972 18.8863 4.82651 18.9252 4.69236C18.9641 4.55821 18.9481 4.4141 18.8809 4.2917L18.3243 3.28052C18.2569 3.15818 18.1437 3.06759 18.0095 3.02868C17.8754 2.98976 17.7313 3.0057 17.6089 3.07299L2.26685 11.5168C2.1445 11.5841 2.05392 11.6974 2.015 11.8315C1.97609 11.9657 1.99203 12.1098 2.05932 12.2322L2.05967 12.2318Z"
        fill="#4C5C75" />
    <path
        d="M19.8115 22.9213H3.21234C2.77535 22.9213 2.35626 22.7477 2.04723 22.4387C1.7382 22.1298 1.56455 21.7107 1.56445 21.2737V12.0821C1.56455 11.6451 1.7382 11.2261 2.04723 10.9171C2.35626 10.6081 2.77535 10.4346 3.21234 10.4346H19.8112C20.2481 10.4346 20.6672 10.6081 20.9763 10.9171C21.2853 11.2261 21.4589 11.6451 21.459 12.0821V21.2737C21.4589 21.7107 21.2853 22.1298 20.9763 22.4387C20.6672 22.7477 20.2485 22.9213 19.8115 22.9213Z"
        fill="#5094FF" />
    <path
        d="M3.21198 22.2634H19.8112C20.0276 22.2635 20.2419 22.2209 20.4419 22.1381C20.6419 22.0553 20.8236 21.9339 20.9766 21.7809C21.1297 21.6279 21.2511 21.4462 21.3339 21.2462C21.4168 21.0463 21.4594 20.832 21.4594 20.6155V11.4242C21.4594 10.9872 21.2858 10.5681 20.9767 10.259C20.6677 9.94998 20.2486 9.77637 19.8115 9.77637H3.21234C2.99593 9.77637 2.78165 9.81899 2.58172 9.90181C2.38179 9.98462 2.20013 10.106 2.04711 10.259C1.89409 10.412 1.7727 10.5937 1.68989 10.7936C1.60708 10.9936 1.56445 11.2078 1.56445 11.4242V20.6155C1.56441 20.832 1.607 21.0463 1.68979 21.2463C1.77258 21.4462 1.89396 21.6279 2.04698 21.781C2.20001 21.9341 2.38168 22.0555 2.58164 22.1383C2.78159 22.2211 2.9959 22.2638 3.21234 22.2638L3.21198 22.2634Z"
        fill="#57B3FE" />
    <path
        d="M3.2126 9.77672H19.8118C20.2488 9.77672 20.6679 9.95029 20.9769 10.2592C21.2859 10.5682 21.4596 10.9873 21.4597 11.4242V20.6155C21.4597 20.6155 21.2701 11.7059 1.89648 10.4353C2.0495 10.2308 2.24809 10.0647 2.47649 9.95033C2.70489 9.83594 2.95681 9.77638 3.21225 9.77637L3.2126 9.77672Z"
        fill="#5094FF" />
    <path
        d="M20.1684 19.3063V19.5618H20.1648C20.1715 19.9077 19.8832 20.1982 19.5352 20.1982H17.8633C17.522 20.1982 17.2269 19.913 17.234 19.5618H17.2305V19.3063H17.2714C17.3702 19.0578 17.6388 18.8877 17.9212 18.8877H19.4776C19.76 18.8877 20.0286 19.0578 20.1274 19.3063H20.1684Z"
        fill="#E3E7F0" />
    <path
        d="M19.5323 19.9436H17.9162C17.5908 19.9436 17.283 19.7227 17.2372 19.4001C17.2239 19.3096 17.2303 19.2174 17.2559 19.1296C17.2815 19.0419 17.3257 18.9606 17.3855 18.8915C17.4452 18.8223 17.5192 18.7668 17.6023 18.7287C17.6854 18.6907 17.7757 18.671 17.8672 18.6709H19.4769C19.8221 18.6709 20.144 18.9215 20.1648 19.266C20.1708 19.3527 20.1588 19.4397 20.1297 19.5216C20.1006 19.6035 20.055 19.6786 19.9957 19.7421C19.9364 19.8057 19.8647 19.8563 19.785 19.891C19.7053 19.9257 19.6193 19.9436 19.5323 19.9436Z"
        fill="white" />
    <path
        d="M15.3754 19.3063V19.5618H15.3719C15.3789 19.9077 15.0902 20.1982 14.7426 20.1982H13.0707C12.729 20.1982 12.4343 19.913 12.441 19.5618H12.4375V19.3063H12.4784C12.5773 19.0578 12.8462 18.8877 13.1286 18.8877H14.6847C14.967 18.8877 15.236 19.0578 15.3348 19.3063H15.3754Z"
        fill="#E3E7F0" />
    <path
        d="M14.7433 19.9436H13.1268C12.8014 19.9436 12.4936 19.7227 12.4481 19.4001C12.4349 19.3096 12.4413 19.2174 12.4669 19.1297C12.4924 19.042 12.5366 18.9608 12.5963 18.8916C12.656 18.8224 12.7299 18.7669 12.813 18.7288C12.8961 18.6908 12.9864 18.671 13.0777 18.6709H14.6875C15.033 18.6709 15.3546 18.9215 15.3757 19.266C15.3817 19.3527 15.3698 19.4397 15.3407 19.5216C15.3116 19.6035 15.266 19.6786 15.2067 19.7421C15.1474 19.8057 15.0756 19.8563 14.9959 19.891C14.9162 19.9257 14.8302 19.9436 14.7433 19.9436Z"
        fill="white" />
    <path
        d="M10.5867 19.3063V19.5618H10.5831C10.5898 19.9077 10.3015 20.1982 9.9535 20.1982H8.28161C7.93997 20.1982 7.64526 19.913 7.65197 19.5618H7.64844V19.3063H7.68973C7.78856 19.0578 8.05714 18.8877 8.3395 18.8877H9.89597C10.1783 18.8877 10.4469 19.0578 10.5457 19.3063H10.5867Z"
        fill="#E3E7F0" />
    <path
        d="M9.95031 19.9436H8.33419C8.00878 19.9436 7.70102 19.7227 7.65513 19.4001C7.64191 19.3096 7.64832 19.2174 7.67391 19.1296C7.6995 19.0419 7.74368 18.9606 7.80344 18.8915C7.8632 18.8223 7.93715 18.7668 8.02027 18.7287C8.10339 18.6907 8.19372 18.671 8.28513 18.6709H9.89454C10.2404 18.6709 10.5616 18.9215 10.5828 19.266C10.5887 19.3527 10.5768 19.4397 10.5477 19.5216C10.5186 19.6035 10.473 19.6786 10.4137 19.7421C10.3544 19.8057 10.2826 19.8563 10.2029 19.891C10.1232 19.9257 10.0372 19.9436 9.95031 19.9436Z"
        fill="white" />
    <path
        d="M5.79335 19.3063V19.5618H5.78982C5.79688 19.9077 5.50817 20.1982 5.16053 20.1982H3.48865C3.147 20.1982 2.85229 19.913 2.859 19.5618H2.85547V19.3063H2.89641C2.99523 19.0578 3.26382 18.8877 3.54653 18.8877H5.10265C5.385 18.8877 5.65394 19.0578 5.75241 19.3063H5.79335Z"
        fill="#E3E7F0" />
    <path
        d="M5.15734 19.9436H3.54087C3.21546 19.9436 2.90769 19.7227 2.86216 19.4001C2.84895 19.3096 2.85534 19.2174 2.88091 19.1297C2.90648 19.042 2.95063 18.9608 3.01036 18.8916C3.07008 18.8224 3.14399 18.7669 3.22706 18.7288C3.31013 18.6908 3.40043 18.671 3.49181 18.6709H5.10158C5.44711 18.6709 5.76863 18.9215 5.78981 19.266C5.79576 19.3527 5.78382 19.4397 5.75473 19.5216C5.72565 19.6035 5.68003 19.6786 5.62072 19.7421C5.56142 19.8057 5.48968 19.8563 5.40996 19.891C5.33025 19.9257 5.24426 19.9436 5.15734 19.9436Z"
        fill="white" />
    <path
        d="M2.85547 12.6795V14.217C2.85547 14.6045 3.16959 14.9186 3.55712 14.9186H6.43641C6.82394 14.9186 7.13806 14.6045 7.13806 14.217V12.6795C7.13806 12.292 6.82394 11.9775 6.43641 11.9775H3.55712C3.16959 11.9775 2.85547 12.2917 2.85547 12.6795Z"
        fill="#FEBC1F" />
    <path
        d="M2.85547 12.4403V13.9777C2.85547 14.3652 3.16959 14.6797 3.55712 14.6797H6.43641C6.82394 14.6797 7.13806 14.3656 7.13806 13.9777V12.4403C7.13806 12.0528 6.82394 11.7383 6.43641 11.7383H3.55712C3.16959 11.7383 2.85547 12.0524 2.85547 12.4403Z"
        fill="#FFD475" />
    <path
        d="M4.92389 13.0431V11.7383H4.59036V13.0431H2.85742V13.3763H3.80542V14.6797H4.1386V13.3763H5.63966V14.6797H5.97283V13.3763H7.13966V13.0431H4.92389Z"
        fill="#FEBC1F" />
    <path
        d="M19.8647 14.1936H17.9877C17.8314 14.1936 17.6839 14.0878 17.6616 13.9328C17.6552 13.8894 17.6583 13.8451 17.6706 13.8029C17.6828 13.7607 17.704 13.7217 17.7327 13.6884C17.7614 13.6552 17.7969 13.6285 17.8369 13.6102C17.8768 13.5919 17.9202 13.5824 17.9641 13.5824H19.8382C20.0037 13.5824 20.158 13.7027 20.1682 13.8682C20.1711 13.9099 20.1653 13.9516 20.1514 13.991C20.1374 14.0303 20.1155 14.0663 20.0871 14.0968C20.0586 14.1273 20.0242 14.1517 19.9859 14.1683C19.9477 14.185 19.9064 14.1936 19.8647 14.1936ZM19.8647 12.8853H16.5696C16.4133 12.8853 16.2657 12.7794 16.2435 12.6241C16.2372 12.5807 16.2403 12.5364 16.2526 12.4943C16.2649 12.4522 16.2861 12.4132 16.3148 12.38C16.3434 12.3467 16.3789 12.3201 16.4188 12.3018C16.4587 12.2835 16.5021 12.274 16.546 12.274H19.8379C20.0037 12.274 20.158 12.394 20.1682 12.5599C20.1711 12.6015 20.1653 12.6433 20.1514 12.6826C20.1374 12.7219 20.1155 12.758 20.0871 12.7885C20.0586 12.819 20.0242 12.8433 19.9859 12.86C19.9477 12.8766 19.9064 12.8852 19.8647 12.8853ZM19.3635 5.75977C20.1463 6.76206 20.7911 7.86484 21.2807 9.03859C20.498 8.0363 19.8529 6.93352 19.3635 5.75977ZM4.74609 9.03753C5.88535 8.16438 7.12426 7.42959 8.4368 6.84859C7.29753 7.72173 6.05862 8.45652 4.74609 9.03753ZM14.1866 21.4356C15.6118 21.2659 17.0521 21.2659 18.4773 21.4356C17.0479 21.6061 15.616 21.6051 14.1866 21.4356Z"
        fill="white" />
</svg>
