<svg width="24" height="24" viewBox="0 0 24 24" fill="none" xmlns="http://www.w3.org/2000/svg">
    <path
        d="M19.5819 21.7376H4.42047C4.19707 21.7376 3.98281 21.6489 3.82484 21.4909C3.66687 21.3329 3.57812 21.1187 3.57812 20.8953V5.73395C3.57812 5.51054 3.66687 5.29629 3.82484 5.13832C3.98281 4.98035 4.19707 4.8916 4.42047 4.8916H19.5819C19.8053 4.8916 20.0196 4.98035 20.1775 5.13832C20.3355 5.29629 20.4242 5.51054 20.4242 5.73395V20.8954C20.4242 21.1188 20.3355 21.333 20.1775 21.4909C20.0195 21.6489 19.8053 21.7376 19.5819 21.7376Z"
        fill="#F1F2F2" />
    <path
        d="M4.14062 20.4551C4.0375 20.4551 3.95312 20.3707 3.95312 20.2676V10.8926C3.95312 10.8429 3.97288 10.7952 4.00804 10.76C4.04321 10.7248 4.0909 10.7051 4.14062 10.7051C4.24469 10.7051 4.32812 10.7885 4.32812 10.8926V20.2676C4.32812 20.3173 4.30837 20.365 4.27321 20.4002C4.23804 20.4353 4.19035 20.4551 4.14062 20.4551ZM4.14062 10.3301C4.0909 10.3301 4.04321 10.3103 4.00804 10.2752C3.97288 10.24 3.95312 10.1923 3.95312 10.1426C3.95312 10.0929 3.97288 10.0452 4.00804 10.01C4.04321 9.97483 4.0909 9.95508 4.14062 9.95508C4.24469 9.95508 4.32812 10.0385 4.32812 10.1426C4.32812 10.1923 4.30837 10.24 4.27321 10.2752C4.23804 10.3103 4.19035 10.3301 4.14062 10.3301Z"
        fill="white" />
    <path
        d="M19.5819 4.8916H19.4867V19.9579C19.4867 20.1813 19.398 20.3955 19.24 20.5534C19.082 20.7114 18.8678 20.8001 18.6444 20.8001H3.57812V20.8954C3.57815 21.1188 3.66691 21.333 3.82487 21.4909C3.98284 21.6489 4.19708 21.7376 4.42047 21.7376H19.5819C19.8053 21.7376 20.0195 21.6489 20.1775 21.4909C20.3355 21.333 20.4242 21.1188 20.4242 20.8954V5.73395C20.4242 5.51054 20.3355 5.29629 20.1775 5.13832C20.0196 4.98035 19.8053 4.8916 19.5819 4.8916Z"
        fill="#E6E7E8" />
    <path
        d="M19.8955 4.95215C19.9354 5.05178 19.9559 5.15813 19.9558 5.26546V20.4269C19.9557 20.6503 19.867 20.8645 19.709 21.0225C19.551 21.1804 19.3368 21.2691 19.1134 21.2691H3.95198C3.84465 21.2693 3.73829 21.2488 3.63867 21.2089C3.70129 21.3651 3.80925 21.4989 3.94863 21.5932C4.08802 21.6875 4.25245 21.7379 4.42073 21.7379H19.5822C19.8056 21.7379 20.0198 21.6492 20.1778 21.4912C20.3357 21.3333 20.4245 21.119 20.4245 20.8956V5.73421C20.4245 5.56593 20.3741 5.4015 20.2798 5.26211C20.1856 5.12272 20.0517 5.01477 19.8955 4.95215Z"
        fill="#D1D3D4" />
    <path
        d="M19.5819 4.8916H4.42047C4.19707 4.8916 3.98281 4.98035 3.82484 5.13832C3.66687 5.29629 3.57812 5.51054 3.57812 5.73395V8.84579H20.4242V5.73395C20.4242 5.62333 20.4024 5.5138 20.3601 5.4116C20.3177 5.3094 20.2557 5.21654 20.1775 5.13832C20.0993 5.0601 20.0064 4.99806 19.9042 4.95572C19.802 4.91339 19.6925 4.8916 19.5819 4.8916Z"
        fill="#478CF7" />
    <path
        d="M8.21106 7.52175C7.99698 7.52175 7.79167 7.43671 7.64029 7.28533C7.48892 7.13395 7.40387 6.92864 7.40387 6.71456V3.06891C7.40387 2.85483 7.48892 2.64952 7.64029 2.49814C7.79167 2.34676 7.99698 2.26172 8.21106 2.26172C8.42514 2.26172 8.63045 2.34676 8.78183 2.49814C8.93321 2.64952 9.01825 2.85483 9.01825 3.06891V6.71456C9.01826 6.82057 8.99739 6.92554 8.95683 7.02347C8.91627 7.12141 8.85681 7.2104 8.78186 7.28536C8.7069 7.36031 8.61791 7.41977 8.51997 7.46033C8.42204 7.50089 8.31707 7.52176 8.21106 7.52175ZM15.7919 7.52175C15.5778 7.52175 15.3725 7.43671 15.2211 7.28533C15.0697 7.13395 14.9847 6.92864 14.9847 6.71456V3.06891C14.9847 2.85483 15.0697 2.64952 15.2211 2.49814C15.3725 2.34676 15.5778 2.26172 15.7919 2.26172C16.006 2.26172 16.2113 2.34676 16.3626 2.49814C16.514 2.64952 16.5991 2.85483 16.5991 3.06891V6.71456C16.5991 6.92864 16.514 7.13395 16.3626 7.28533C16.2113 7.43671 16.006 7.52175 15.7919 7.52175ZM19.0654 10.3893V12.6421C19.0654 12.6684 19.0603 12.6944 19.0502 12.7186C19.0402 12.7429 19.0254 12.765 19.0068 12.7835C18.9883 12.8021 18.9662 12.8168 18.9419 12.8269C18.9177 12.8369 18.8916 12.8421 18.8654 12.8421H16.6126C16.5863 12.8421 16.5603 12.8369 16.536 12.8268C16.5118 12.8168 16.4897 12.8021 16.4712 12.7835C16.4526 12.7649 16.4379 12.7429 16.4278 12.7186C16.4178 12.6944 16.4126 12.6684 16.4126 12.6421V10.3893C16.4126 10.2788 16.5021 10.1893 16.6126 10.1893H18.8654C18.9759 10.1893 19.0654 10.2788 19.0654 10.3893ZM15.2404 10.3893V12.6421C15.2404 12.6684 15.2353 12.6944 15.2252 12.7186C15.2152 12.7429 15.2004 12.765 15.1818 12.7835C15.1633 12.8021 15.1412 12.8168 15.1169 12.8269C15.0927 12.8369 15.0666 12.8421 15.0404 12.8421H12.7876C12.7613 12.8421 12.7353 12.8369 12.711 12.8268C12.6868 12.8168 12.6647 12.8021 12.6462 12.7835C12.6276 12.7649 12.6129 12.7429 12.6028 12.7186C12.5928 12.6944 12.5876 12.6684 12.5876 12.6421V10.3893C12.5876 10.2788 12.6771 10.1893 12.7876 10.1893H15.0404C15.1508 10.1893 15.2404 10.2788 15.2404 10.3893ZM11.4153 10.3893V12.6421C11.4153 12.6684 11.4102 12.6944 11.4001 12.7186C11.3901 12.7429 11.3753 12.765 11.3567 12.7835C11.3382 12.8021 11.3161 12.8168 11.2918 12.8269C11.2676 12.8369 11.2415 12.8421 11.2153 12.8421H8.96247C8.93621 12.8421 8.91021 12.8369 8.88594 12.8268C8.86168 12.8168 8.83964 12.8021 8.82107 12.7835C8.8025 12.7649 8.78777 12.7429 8.77772 12.7186C8.76767 12.6944 8.7625 12.6684 8.7625 12.6421V10.3893C8.7625 10.2788 8.85203 10.1893 8.96247 10.1893H11.2153C11.3258 10.1893 11.4153 10.2788 11.4153 10.3893ZM7.59034 10.3893V12.6421C7.59034 12.6684 7.58517 12.6944 7.57511 12.7186C7.56506 12.7429 7.55032 12.765 7.53174 12.7835C7.51316 12.8021 7.49111 12.8168 7.46683 12.8269C7.44256 12.8369 7.41655 12.8421 7.39028 12.8421H5.13747C5.11121 12.8421 5.08521 12.8369 5.06094 12.8268C5.03668 12.8168 5.01464 12.8021 4.99607 12.7835C4.9775 12.7649 4.96277 12.7429 4.95272 12.7186C4.94267 12.6944 4.9375 12.6684 4.9375 12.6421V10.3893C4.9375 10.2788 5.02703 10.1893 5.13747 10.1893H7.39028C7.50072 10.1893 7.59034 10.2788 7.59034 10.3893Z"
        fill="#FFA91A" />
    <path
        d="M15.2404 13.9754V16.2282C15.2404 16.2544 15.2353 16.2805 15.2252 16.3047C15.2152 16.329 15.2004 16.351 15.1818 16.3696C15.1633 16.3882 15.1412 16.4029 15.1169 16.4129C15.0927 16.423 15.0666 16.4282 15.0404 16.4281H12.7876C12.7613 16.4281 12.7353 16.423 12.711 16.4129C12.6868 16.4029 12.6647 16.3881 12.6462 16.3696C12.6276 16.351 12.6129 16.329 12.6028 16.3047C12.5928 16.2804 12.5876 16.2544 12.5876 16.2282V13.9754C12.5876 13.8649 12.6771 13.7754 12.7876 13.7754H15.0404C15.1508 13.7754 15.2404 13.8649 15.2404 13.9754ZM11.4153 13.9754V16.2282C11.4153 16.2544 11.4102 16.2805 11.4001 16.3047C11.3901 16.329 11.3753 16.351 11.3567 16.3696C11.3382 16.3882 11.3161 16.4029 11.2918 16.4129C11.2676 16.423 11.2415 16.4282 11.2153 16.4281H8.96247C8.90943 16.4281 8.85857 16.4071 8.82107 16.3696C8.78357 16.3321 8.7625 16.2812 8.7625 16.2282V13.9754C8.7625 13.8649 8.85203 13.7754 8.96247 13.7754H11.2153C11.3258 13.7754 11.4153 13.8649 11.4153 13.9754ZM7.59034 13.9754V16.2282C7.59034 16.2544 7.58517 16.2805 7.57511 16.3047C7.56506 16.329 7.55032 16.351 7.53174 16.3696C7.51316 16.3882 7.49111 16.4029 7.46683 16.4129C7.44256 16.423 7.41655 16.4282 7.39028 16.4281H5.13747C5.08443 16.4281 5.03357 16.4071 4.99607 16.3696C4.95857 16.3321 4.9375 16.2812 4.9375 16.2282V13.9754C4.9375 13.8649 5.02703 13.7754 5.13747 13.7754H7.39028C7.50072 13.7754 7.59034 13.8649 7.59034 13.9754ZM15.2404 17.5615V19.8143C15.2404 19.8406 15.2353 19.8666 15.2252 19.8908C15.2152 19.9151 15.2004 19.9372 15.1818 19.9557C15.1633 19.9743 15.1412 19.989 15.1169 19.9991C15.0927 20.0091 15.0666 20.0143 15.0404 20.0143H12.7876C12.7613 20.0143 12.7353 20.0091 12.711 19.999C12.6868 19.989 12.6647 19.9743 12.6462 19.9557C12.6276 19.9371 12.6129 19.9151 12.6028 19.8908C12.5928 19.8666 12.5876 19.8406 12.5876 19.8143V17.5615C12.5876 17.451 12.6771 17.3615 12.7876 17.3615H15.0404C15.1508 17.3615 15.2404 17.451 15.2404 17.5615ZM11.4153 17.5615V19.8143C11.4153 19.8406 11.4102 19.8666 11.4001 19.8908C11.3901 19.9151 11.3753 19.9372 11.3567 19.9557C11.3382 19.9743 11.3161 19.989 11.2918 19.9991C11.2676 20.0091 11.2415 20.0143 11.2153 20.0143H8.96247C8.93621 20.0143 8.91021 20.0091 8.88594 19.999C8.86168 19.989 8.83964 19.9743 8.82107 19.9557C8.8025 19.9371 8.78777 19.9151 8.77772 19.8908C8.76767 19.8666 8.7625 19.8406 8.7625 19.8143V17.5615C8.7625 17.451 8.85203 17.3615 8.96247 17.3615H11.2153C11.3258 17.3615 11.4153 17.451 11.4153 17.5615ZM7.59034 17.5615V19.8143C7.59034 19.8406 7.58517 19.8666 7.57511 19.8908C7.56506 19.9151 7.55032 19.9372 7.53174 19.9557C7.51316 19.9743 7.49111 19.989 7.46683 19.9991C7.44256 20.0091 7.41655 20.0143 7.39028 20.0143H5.13747C5.11121 20.0143 5.08521 20.0091 5.06094 19.999C5.03668 19.989 5.01464 19.9743 4.99607 19.9557C4.9775 19.9371 4.96277 19.9151 4.95272 19.8908C4.94267 19.8666 4.9375 19.8406 4.9375 19.8143V17.5615C4.9375 17.451 5.02703 17.3615 5.13747 17.3615H7.39028C7.50072 17.3615 7.59034 17.451 7.59034 17.5615ZM18.8654 13.7754H16.6126C16.5863 13.7754 16.5603 13.7806 16.536 13.7906C16.5118 13.8007 16.4897 13.8154 16.4712 13.834C16.4526 13.8525 16.4379 13.8746 16.4278 13.8988C16.4178 13.9231 16.4126 13.9491 16.4126 13.9754V16.2282C16.4126 16.3386 16.5021 16.4281 16.6126 16.4281H18.8654C18.9184 16.4281 18.9693 16.4071 19.0068 16.3696C19.0443 16.3321 19.0654 16.2812 19.0654 16.2282V13.9754C19.0654 13.9491 19.0603 13.9231 19.0502 13.8988C19.0402 13.8745 19.0254 13.8525 19.0068 13.8339C18.9883 13.8154 18.9662 13.8006 18.9419 13.7906C18.9177 13.7805 18.8916 13.7754 18.8654 13.7754ZM18.8654 17.3615H16.6126C16.5863 17.3615 16.5603 17.3667 16.536 17.3767C16.5118 17.3868 16.4897 17.4015 16.4712 17.4201C16.4526 17.4387 16.4379 17.4607 16.4278 17.485C16.4178 17.5092 16.4126 17.5352 16.4126 17.5615V19.8143C16.4126 19.9247 16.5021 20.0144 16.6126 20.0144H18.8654C18.9184 20.0144 18.9693 19.9933 19.0068 19.9558C19.0444 19.9182 19.0654 19.8674 19.0654 19.8143V17.5615C19.0654 17.5352 19.0603 17.5092 19.0502 17.4849C19.0402 17.4607 19.0254 17.4386 19.0068 17.4201C18.9883 17.4015 18.9662 17.3868 18.9419 17.3767C18.9177 17.3667 18.8916 17.3615 18.8654 17.3615Z"
        fill="#D1D3D4" />
    <path d="M3.57812 8.10449H20.4242V8.84559H3.57812V8.10449Z" fill="#377DE2" />
    <path
        d="M12.0019 23.0097C14.5638 23.0097 16.6406 20.9329 16.6406 18.3711C16.6406 15.8092 14.5638 13.7324 12.0019 13.7324C9.44008 13.7324 7.36328 15.8092 7.36328 18.3711C7.36328 20.9329 9.44008 23.0097 12.0019 23.0097Z"
        fill="#FFA91A" />
    <path
        d="M14.7781 14.6553C15.379 15.4565 15.7031 16.4314 15.7015 17.433C15.7015 19.9948 13.6248 22.0716 11.0629 22.0716C10.0613 22.0732 9.08641 21.7491 8.28516 21.1482C9.13116 22.278 10.4804 23.0091 12.0004 23.0091C14.5622 23.0091 16.639 20.9324 16.639 18.3705C16.639 16.8505 15.9079 15.5014 14.7781 14.6553Z"
        fill="#F79219" />
    <path
        d="M11.5088 20.4361C11.4047 20.4362 11.3015 20.4157 11.2053 20.3759C11.1092 20.3361 11.0218 20.2776 10.9482 20.2039L9.38711 18.6428C9.2416 18.4935 9.16078 18.2928 9.16213 18.0844C9.16348 17.8759 9.2469 17.6763 9.39433 17.5289C9.54176 17.3814 9.74133 17.298 9.94982 17.2967C10.1583 17.2953 10.3589 17.3761 10.5083 17.5216L11.5089 18.5223L13.4946 16.5365C13.6439 16.391 13.8445 16.3102 14.053 16.3115C14.2615 16.3129 14.4611 16.3963 14.6085 16.5437C14.7559 16.6912 14.8394 16.8907 14.8407 17.0992C14.8421 17.3077 14.7612 17.5084 14.6157 17.6577L12.0695 20.2039C11.9959 20.2776 11.9085 20.3361 11.8123 20.3759C11.716 20.4157 11.6129 20.4362 11.5088 20.4361Z"
        fill="white" />
</svg>
