<svg width="24" height="24" viewBox="0 0 24 24" fill="none" xmlns="http://www.w3.org/2000/svg">
    <g clip-path="url(#clip0_448_37079)">
        <path fill-rule="evenodd" clip-rule="evenodd"
            d="M10.1386 23.8328C10.2657 23.9407 10.427 24 10.5938 24H13.4062C13.573 24 13.7343 23.9407 13.8614 23.8328C13.9885 23.7249 14.0731 23.5753 14.1001 23.4107L14.5325 20.7766C15.1874 20.5878 15.8188 20.3256 16.4149 19.9951L18.552 21.5215C18.6874 21.6182 18.8528 21.6638 19.0186 21.65C19.1845 21.6363 19.3401 21.5642 19.4578 21.4465L21.4465 19.4578C21.5642 19.3401 21.6363 19.1845 21.65 19.0186C21.6638 18.8527 21.6182 18.6873 21.5215 18.5519L19.9951 16.4149C20.3256 15.8188 20.5878 15.1873 20.7766 14.5324L23.4107 14.1001C23.5753 14.0731 23.7249 13.9885 23.8328 13.8614C23.9407 13.7343 24 13.573 24 13.4062V10.5938C24 10.427 23.9407 10.2657 23.8328 10.1386C23.7249 10.0115 23.5753 9.92688 23.4107 9.89986L20.7766 9.46753C20.5877 8.81265 20.3256 8.18118 19.9951 7.58508L21.5215 5.44805C21.6182 5.31261 21.6638 5.14724 21.65 4.98137C21.6363 4.8155 21.5642 4.65987 21.4465 4.54219L19.4578 2.55352C19.3401 2.43581 19.1845 2.36368 19.0186 2.34995C18.8528 2.33621 18.6874 2.38177 18.552 2.47852L16.4149 4.00491C15.8188 3.67441 15.1874 3.41224 14.5325 3.22336L14.1001 0.589266C14.0731 0.424724 13.9885 0.275133 13.8614 0.167195C13.7343 0.0592581 13.573 0 13.4062 0H10.5938C10.427 0 10.2657 0.0592496 10.1386 0.167177C10.0115 0.275105 9.92692 0.424685 9.89991 0.589219L9.46753 3.22336C8.81265 3.41224 8.18117 3.67441 7.58508 4.00491L5.44805 2.47852C5.31261 2.38178 5.14724 2.33623 4.98137 2.34996C4.8155 2.36369 4.65987 2.43582 4.54219 2.55352L2.55352 4.54223C2.43582 4.65992 2.36369 4.81554 2.34996 4.98142C2.33623 5.14729 2.38178 5.31265 2.47852 5.44809L4.00491 7.58512C3.67441 8.18121 3.41224 8.81269 3.22336 9.46758L0.589266 9.89991C0.424724 9.92691 0.275133 10.0115 0.167195 10.1386C0.0592581 10.2657 0 10.427 0 10.5938V13.4062C8.04673e-06 13.573 0.0592675 13.7343 0.167202 13.8614C0.275137 13.9885 0.424724 14.0731 0.589266 14.1001L3.22336 14.5325C3.41224 15.1874 3.67441 15.8188 4.00491 16.4149L2.47852 18.552C2.38178 18.6874 2.33623 18.8528 2.34996 19.0186C2.36369 19.1845 2.43582 19.3401 2.55352 19.4578L4.54219 21.4464C4.65987 21.5641 4.8155 21.6363 4.98137 21.65C5.14724 21.6637 5.31261 21.6182 5.44805 21.5214L7.58508 19.995C8.18117 20.3255 8.81265 20.5877 9.46753 20.7766L9.89991 23.4107C9.92691 23.5753 10.0115 23.7249 10.1386 23.8328ZM7.07812 12C7.07812 14.7139 9.28608 16.9219 12 16.9219C14.7139 16.9219 16.9219 14.7139 16.9219 12C16.9219 9.28608 14.7139 7.07812 12 7.07812C9.28608 7.07812 7.07812 9.28608 7.07812 12Z"
            fill="url(#paint0_linear_448_37079)" />
    </g>
    <defs>
        <linearGradient id="paint0_linear_448_37079" x1="12" y1="24" x2="12" y2="0"
            gradientUnits="userSpaceOnUse">
            <stop stop-color="#5558FF" />
            <stop offset="1" stop-color="#00C0FF" />
        </linearGradient>
        <clipPath id="clip0_448_37079">
            <rect width="24" height="24" fill="white" />
        </clipPath>
    </defs>
</svg>
