<svg width="24" height="24" viewBox="0 0 24 24" fill="none" xmlns="http://www.w3.org/2000/svg">
    <g clip-path="url(#clip0_448_37099)">
        <path d="M3.41211 0.529297H21.3156V24.0002H3.41211V0.529297Z" fill="#3C51D1" />
        <path
            d="M4.33605 2.80078H19.3198V22.97H6.52535C5.31603 22.97 4.33572 21.9895 4.33594 20.7801L4.33605 2.80078Z"
            fill="#2044B4" />
        <path
            d="M19.7905 2.3252V22.4946H6.68934C6.6553 22.4946 6.62122 22.4935 6.58692 22.4911C5.58986 22.4391 4.80794 21.6161 4.80664 20.6178V2.3252H19.7905Z"
            fill="white" />
        <path d="M21.317 9.97168V13.211L19.791 14.7371V11.4977L21.317 9.97168Z" fill="#0C1E88" />
        <path
            d="M19.7892 11.498V14.7374L19.1089 15.4176L18.9612 15.5649L18.8108 15.715L18.4561 16.07L17.6519 17.8741L14.7142 18.4922L14.6735 18.5009L14.3359 18.5721L14.4075 18.2307L14.4155 18.1927L15.0327 15.2561L16.8378 14.4514L17.1928 14.0969L17.1913 14.0954L17.3022 13.9843L18.1921 13.0943L18.3791 12.908L19.7892 11.498Z"
            fill="#FED5C5" />
        <path d="M2.9668 0.529297H3.4117V24.0002H2.9668V0.529297Z" fill="#6175E9" />
        <path d="M8.91998 0.529297H15.2033V1.88829H8.91992L8.91998 0.529297Z" fill="#0C1E88" />
        <path
            d="M9.50121 4.26619e-06H14.93C15.0019 4.26619e-06 15.0708 0.0285511 15.1216 0.0793648C15.1724 0.130178 15.201 0.199097 15.201 0.270958V1.42739H9.22852V0.272584C9.22833 0.236727 9.23526 0.201189 9.2489 0.168026C9.26254 0.134864 9.28262 0.104736 9.30798 0.0793859C9.33334 0.0540358 9.36347 0.0339672 9.39664 0.0203413C9.42981 0.00671551 9.46535 -0.000196862 9.50121 4.26619e-06Z"
            fill="#FF8C5F" />
        <path
            d="M9.50151 0.256836H14.9303C15.08 0.256836 15.2013 0.378332 15.2013 0.52779V1.60358H9.22882V0.52909C9.22871 0.493243 9.23568 0.457727 9.24936 0.424589C9.26303 0.391451 9.28312 0.361346 9.30848 0.336009C9.33384 0.310738 9.36396 0.290736 9.39709 0.277157C9.43022 0.263578 9.46571 0.256636 9.50151 0.256836ZM19.7895 19.9922V22.4948H6.68836C6.65433 22.4948 6.62024 22.4937 6.58594 22.4914C7.64374 22.1156 8.35028 21.1148 8.35028 19.9922H19.7895Z"
            fill="#FED5C5" />
        <path
            d="M18.9219 22.4952H20.6196C21.729 22.4952 22.6285 21.5957 22.6285 20.4863H8.78164C8.78164 21.5955 7.88261 22.4947 6.77344 22.4952"
            fill="#FF8C5F" />
        <path
            d="M13.6048 0.892296C13.6052 0.924865 13.5986 0.957271 13.586 0.98713C13.5731 1.01624 13.5547 1.04256 13.5318 1.06462C13.5093 1.08741 13.4826 1.10548 13.4531 1.11777C13.4235 1.13005 13.3918 1.13631 13.3599 1.13615H11.0714C11.0235 1.13616 10.9767 1.12202 10.9368 1.09551C10.8969 1.06899 10.8657 1.03129 10.8472 0.98713C10.8343 0.957183 10.8278 0.924888 10.8281 0.892296C10.8283 0.827772 10.854 0.765927 10.8995 0.720245C10.9451 0.674564 11.0069 0.648752 11.0714 0.648438H13.3616C13.4261 0.64861 13.488 0.674376 13.5336 0.720088C13.5792 0.7658 13.6048 0.827728 13.6048 0.892296Z"
            fill="#030303" />
        <path
            d="M13.5863 0.984424C13.5734 1.01347 13.555 1.03977 13.5322 1.06192C13.5097 1.08466 13.483 1.10269 13.4535 1.11497C13.424 1.12726 13.3923 1.13354 13.3604 1.13345H11.0718C11.024 1.13341 10.9772 1.11925 10.9373 1.09275C10.8974 1.06624 10.8662 1.02856 10.8477 0.984424C10.8604 0.955197 10.8788 0.928786 10.9018 0.906714C10.9473 0.86239 11.0084 0.837677 11.0718 0.837892H13.362C13.4096 0.837779 13.4562 0.851591 13.4961 0.877626C13.5359 0.903661 13.5673 0.940783 13.5863 0.984424Z"
            fill="#2044B4" />
        <path
            d="M10.0347 6.84269H9.52101C9.44915 6.84269 9.38023 6.81414 9.32941 6.76333C9.2786 6.71251 9.25005 6.6436 9.25005 6.57173C9.25005 6.49987 9.2786 6.43096 9.32941 6.38014C9.38023 6.32933 9.44915 6.30078 9.52101 6.30078H10.0347C10.1066 6.30078 10.1755 6.32933 10.2263 6.38014C10.2771 6.43096 10.3057 6.49987 10.3057 6.57173C10.3057 6.6436 10.2771 6.71251 10.2263 6.76333C10.1755 6.81414 10.1066 6.84269 10.0347 6.84269ZM17.6941 6.84269H11.137C11.0651 6.84269 10.9962 6.81414 10.9454 6.76333C10.8946 6.71251 10.866 6.6436 10.866 6.57173C10.866 6.49987 10.8946 6.43096 10.9454 6.38014C10.9962 6.32933 11.0651 6.30078 11.137 6.30078H17.6941C17.7659 6.30078 17.8348 6.32933 17.8856 6.38014C17.9365 6.43096 17.965 6.49987 17.965 6.57173C17.965 6.6436 17.9365 6.71251 17.8856 6.76333C17.8348 6.81414 17.7659 6.84269 17.6941 6.84269ZM10.0347 9.89152H9.52101C9.44915 9.89152 9.38023 9.86297 9.32941 9.81215C9.2786 9.76134 9.25005 9.69242 9.25005 9.62056C9.25005 9.5487 9.2786 9.47978 9.32941 9.42897C9.38023 9.37815 9.44915 9.34961 9.52101 9.34961H10.0347C10.1066 9.34961 10.1755 9.37815 10.2263 9.42897C10.2771 9.47978 10.3057 9.5487 10.3057 9.62056C10.3057 9.69242 10.2771 9.76134 10.2263 9.81215C10.1755 9.86297 10.1066 9.89152 10.0347 9.89152ZM17.6941 9.89152H11.137C11.0651 9.89152 10.9962 9.86297 10.9454 9.81215C10.8946 9.76134 10.866 9.69242 10.866 9.62056C10.866 9.5487 10.8946 9.47978 10.9454 9.42897C10.9962 9.37815 11.0651 9.34961 11.137 9.34961H17.6941C17.7659 9.34961 17.8348 9.37815 17.8856 9.42897C17.9365 9.47978 17.965 9.5487 17.965 9.62056C17.965 9.69242 17.9365 9.76134 17.8856 9.81215C17.8348 9.86297 17.7659 9.89152 17.6941 9.89152ZM17.6941 8.3958H16.8368C16.7649 8.3958 16.696 8.36725 16.6452 8.31644C16.5944 8.26562 16.5658 8.1967 16.5658 8.12484C16.5658 8.05298 16.5944 7.98406 16.6452 7.93325C16.696 7.88244 16.7649 7.85389 16.8368 7.85389H17.6941C17.7659 7.85389 17.8348 7.88244 17.8856 7.93325C17.9365 7.98406 17.965 8.05298 17.965 8.12484C17.965 8.1967 17.9365 8.26562 17.8856 8.31644C17.8348 8.36725 17.7659 8.3958 17.6941 8.3958ZM15.8645 8.3958H9.52095C9.44909 8.3958 9.38017 8.36725 9.32936 8.31644C9.27855 8.26562 9.25 8.1967 9.25 8.12484C9.25 8.05298 9.27855 7.98406 9.32936 7.93325C9.38017 7.88244 9.44909 7.85389 9.52095 7.85389H15.8645C15.9364 7.85389 16.0053 7.88244 16.0561 7.93325C16.1069 7.98406 16.1355 8.05298 16.1355 8.12484C16.1355 8.1967 16.1069 8.26562 16.0561 8.31644C16.0053 8.36725 15.9364 8.3958 15.8645 8.3958ZM15.9187 11.4234H9.53884C9.46697 11.4234 9.39806 11.3949 9.34724 11.3441C9.29643 11.2933 9.26788 11.2243 9.26788 11.1525C9.26788 11.0806 9.29643 11.0117 9.34724 10.9609C9.39806 10.9101 9.46697 10.8815 9.53884 10.8815H15.9187C15.9906 10.8815 16.0595 10.9101 16.1103 10.9609C16.1611 11.0117 16.1897 11.0806 16.1897 11.1525C16.1897 11.2243 16.1611 11.2933 16.1103 11.3441C16.0595 11.3949 15.9906 11.4234 15.9187 11.4234Z"
            fill="#383838" />
        <path
            d="M6.53697 17.6954C6.48696 17.6955 6.4379 17.6818 6.39522 17.6557C6.35255 17.6296 6.31793 17.5923 6.29521 17.5477C6.27248 17.5032 6.26253 17.4532 6.26646 17.4033C6.2704 17.3535 6.28806 17.3057 6.31749 17.2653L7.52914 15.5951C7.55398 15.5607 7.56884 15.5202 7.57209 15.4779C7.57534 15.4356 7.56686 15.3932 7.54757 15.3555C7.5283 15.3177 7.49897 15.2859 7.4628 15.2637C7.42664 15.2416 7.38505 15.2298 7.34262 15.2298H6.53697C6.4651 15.2298 6.39619 15.2012 6.34537 15.1504C6.29456 15.0996 6.26601 15.0307 6.26601 14.9588C6.26601 14.8869 6.29456 14.818 6.34537 14.7672C6.39619 14.7164 6.4651 14.6878 6.53697 14.6878H7.34262C7.63308 14.6876 7.89873 14.8504 8.03063 15.1091C8.0953 15.2359 8.12365 15.3781 8.11251 15.5201C8.10138 15.662 8.05121 15.7981 7.96755 15.9133L7.59471 16.4274L10.889 14.3237C10.9496 14.2851 11.023 14.2721 11.0932 14.2876C11.1633 14.3031 11.2245 14.3458 11.2632 14.4063C11.3019 14.4669 11.3148 14.5404 11.2993 14.6106C11.2838 14.6807 11.2411 14.7419 11.1805 14.7806L6.68263 17.6527C6.63922 17.6806 6.58861 17.6954 6.53697 17.6954Z"
            fill="#FCC924" />
        <path
            d="M10.6816 18.6943H6.53658C6.46472 18.6943 6.3958 18.6657 6.34499 18.6149C6.29417 18.5641 6.26562 18.4952 6.26562 18.4233C6.26562 18.3514 6.29417 18.2825 6.34499 18.2317C6.3958 18.1809 6.46472 18.1523 6.53658 18.1523H10.6815C10.7534 18.1523 10.8223 18.1809 10.8731 18.2317C10.9239 18.2825 10.9525 18.3514 10.9525 18.4233C10.9525 18.4952 10.9239 18.5641 10.8731 18.6149C10.8223 18.6657 10.7534 18.6943 10.6815 18.6943H10.6816Z"
            fill="#383838" />
        <path
            d="M18.4733 15.0885L16.8535 13.4688L16.7028 13.6189L16.7045 13.6199L16.3495 13.9748L14.5444 14.7795L13.9418 17.6473L13.9272 17.7162L13.9192 17.754L13.8477 18.0954L14.1853 18.0246L14.2259 18.0159L17.1634 17.3976L17.9676 15.5936L18.3226 15.2386L18.3232 15.2391L18.4733 15.0885Z"
            fill="#FF8C5F" />
        <path
            d="M18.1119 14.7369L17.6069 15.2419L16.8027 17.0459L13.9414 17.648L14.544 14.7801L16.3491 13.9755L16.8499 13.4746L18.1119 14.7369Z"
            fill="#FFB69F" />
        <path
            d="M23.922 9.16768C23.9222 9.318 23.8927 9.46689 23.8351 9.60575C23.7775 9.74461 23.693 9.8707 23.5865 9.97675L19.3249 14.2381L17.7051 12.6185L21.9666 8.35693C22.3661 7.95749 22.9969 7.90899 23.4527 8.24259C23.4711 8.25554 23.4889 8.26968 23.5068 8.28432C23.637 8.39174 23.7417 8.52667 23.8135 8.6794C23.8853 8.83213 23.9223 8.99892 23.922 9.16768Z"
            fill="#3C51D1" />
        <path
            d="M23.5771 8.76537C23.5774 8.91579 23.548 9.06478 23.4904 9.20375C23.4329 9.34273 23.3484 9.46892 23.2418 9.57504L18.9808 13.8367L17.7344 12.5903L21.9666 8.35786C22.366 7.95847 22.9968 7.90997 23.4526 8.24357C23.5347 8.40524 23.5773 8.58405 23.5771 8.76537Z"
            fill="#6175E9" />
        <path
            d="M18.6208 14.9412L17.0012 13.3214L17.8909 12.4316L19.5108 14.0514L18.6208 14.9412ZM15.2877 16.8959L14.1497 18.0339L13.8457 18.0978L13.9102 17.79L15.0445 16.6564C15.0603 16.6405 15.0791 16.6279 15.0998 16.6193C15.1206 16.6107 15.1428 16.6062 15.1652 16.6062C15.1877 16.6062 15.2099 16.6107 15.2306 16.6193C15.2513 16.6279 15.2701 16.6405 15.286 16.6564C15.3019 16.6723 15.3145 16.6911 15.3231 16.7118C15.3317 16.7326 15.3362 16.7548 15.3362 16.7773C15.3362 16.7997 15.3317 16.822 15.3231 16.8427C15.3145 16.8635 15.3019 16.8823 15.286 16.8982L15.2877 16.8959Z"
            fill="#0C1E88" />
        <path
            d="M19.324 14.2377L18.4343 15.1276L18.0696 14.7629H18.0689L16.8145 13.5079L17.7042 12.6182L19.324 14.2377Z"
            fill="#EAAE06" />
        <path
            d="M18.9593 13.8732L18.0695 14.7629H18.0689L16.8145 13.5079L17.7042 12.6182L18.9593 13.8732Z"
            fill="#FCC924" />
        <path
            d="M16.2602 16.1446C16.2602 16.3995 16.0538 16.6059 15.7992 16.6059C15.5445 16.6059 15.3379 16.3995 15.3379 16.1446C15.3379 15.89 15.5445 15.6836 15.7992 15.6836C16.0538 15.6836 16.2602 15.89 16.2602 16.1446Z"
            fill="#0C1E88" />
        <path
            d="M15.9864 16.1425C15.9864 16.1672 15.9815 16.1915 15.9721 16.2143C15.9627 16.2371 15.9489 16.2577 15.9315 16.2752C15.914 16.2926 15.8934 16.3064 15.8706 16.3158C15.8479 16.3252 15.8235 16.3301 15.7988 16.3301C15.7617 16.3301 15.7255 16.3191 15.6947 16.2985C15.6638 16.2779 15.6398 16.2486 15.6256 16.2143C15.6114 16.1801 15.6077 16.1424 15.6149 16.106C15.6222 16.0696 15.64 16.0362 15.6662 16.01C15.6925 15.9838 15.7259 15.9659 15.7622 15.9587C15.7986 15.9514 15.8363 15.9552 15.8706 15.9693C15.9048 15.9835 15.9341 16.0076 15.9547 16.0384C15.9753 16.0692 15.9863 16.1055 15.9863 16.1426L15.9864 16.1425Z"
            fill="#FCC924" />
        <path
            d="M7.03193 5.01884V8.20845C7.03252 10.0927 5.93879 11.8058 4.22918 12.5979L3.68727 12.849C3.63703 12.8724 3.58227 12.8845 3.52684 12.8845C3.47141 12.8845 3.41665 12.8724 3.36641 12.849L3.17355 12.7605L2.8245 12.5979C1.1156 11.8054 0.0224627 10.0924 0.0234382 8.20845V5.01878C0.0241476 4.9184 0.064341 4.82232 0.135327 4.75134C0.206313 4.68035 0.302387 4.64016 0.402773 4.63945H1.83774C2.17323 4.63949 2.50189 4.54475 2.78588 4.36614C3.06986 4.18753 3.29761 3.93233 3.44287 3.62993C3.45024 3.61389 3.46205 3.60029 3.47691 3.59076C3.49177 3.58123 3.50905 3.57617 3.52671 3.57617C3.56269 3.57617 3.59531 3.59714 3.61032 3.62993C3.75615 3.93153 3.98405 4.18592 4.26786 4.36391C4.55167 4.54191 4.8799 4.63629 5.21491 4.63625H6.64945C6.69969 4.63624 6.74944 4.64614 6.79586 4.66536C6.84228 4.68459 6.88445 4.71277 6.91998 4.7483C6.9555 4.78382 6.98368 4.826 7.00289 4.87242C7.02211 4.91884 7.03194 4.9686 7.03193 5.01884Z"
            fill="#FE5E22" />
        <path
            d="M7.03221 5.01882V8.20843C7.03281 10.0926 5.93907 11.8058 4.22946 12.5979L3.68756 12.8489C3.63731 12.8724 3.58256 12.8845 3.52712 12.8845C3.47169 12.8845 3.41694 12.8724 3.36669 12.8489L3.17383 12.7605L3.52227 12.5979C5.23199 11.8059 6.326 10.0928 6.32556 8.20843V4.63672H6.65071C6.75189 4.63701 6.84885 4.67737 6.92034 4.74897C6.99184 4.82057 7.03207 4.91763 7.03221 5.01882Z"
            fill="#FF8C5F" />
        <path
            d="M5.47747 8.30093C5.47747 9.57355 4.44595 10.6051 3.17328 10.6051C3.0734 10.6051 2.97369 10.5987 2.87463 10.5863C1.72731 10.4359 0.869141 9.45818 0.869141 8.30093C0.869141 7.14364 1.72731 6.16587 2.87463 6.01582C2.97364 6.00269 3.0734 5.9961 3.17328 5.99609C4.44595 5.99653 5.47747 7.02826 5.47747 8.30093Z"
            fill="#030303" />
        <path
            d="M5.83104 8.30093C5.83104 9.57355 4.79946 10.6051 3.52685 10.6051C3.42692 10.6051 3.32721 10.5987 3.22815 10.5863C2.08082 10.4359 1.22266 9.45818 1.22266 8.30093C1.22266 7.14364 2.08082 6.16587 3.22815 6.01582C3.32717 6.00269 3.42696 5.9961 3.52685 5.99609C4.79946 5.99653 5.83104 7.02826 5.83104 8.30093Z"
            fill="white" />
        <path
            d="M5.27373 8.30087C5.27373 9.26655 4.49095 10.0491 3.52543 10.0491C2.55975 10.0489 1.77713 9.26612 1.77734 8.30039C1.77756 7.33492 2.56056 6.55236 3.52608 6.55273C4.49154 6.55273 5.27395 7.33536 5.27373 8.30087Z"
            fill="#FCC924" />
        <path
            d="M3.50747 9.60303C3.47187 9.60309 3.4366 9.59613 3.40369 9.58255C3.37077 9.56898 3.34085 9.54905 3.31564 9.52391L2.12344 8.33171C2.09763 8.30669 2.07705 8.27679 2.0629 8.24374C2.04875 8.2107 2.04131 8.17517 2.04102 8.13922C2.04073 8.10327 2.0476 8.06762 2.06121 8.03435C2.07483 8.00108 2.09492 7.97085 2.12033 7.94542C2.14574 7.91999 2.17595 7.89986 2.2092 7.88621C2.24246 7.87257 2.2781 7.86567 2.31405 7.86592C2.35 7.86618 2.38553 7.87358 2.4186 7.8877C2.45166 7.90181 2.48158 7.92236 2.50662 7.94815L3.50856 8.95003L6.1677 6.29089C6.21879 6.24153 6.28723 6.21423 6.35827 6.21485C6.42931 6.21548 6.49725 6.244 6.54747 6.29425C6.59772 6.34446 6.62623 6.41241 6.62686 6.48345C6.62749 6.55448 6.60018 6.62292 6.55083 6.67402L3.69882 9.52391C3.648 9.57454 3.57921 9.60299 3.50747 9.60303Z"
            fill="#060B6F" />
    </g>
    <defs>
        <clipPath id="clip0_448_37099">
            <rect width="23.9523" height="24" fill="white" />
        </clipPath>
    </defs>
</svg>
